<!DOCTYPE svg PUBLIC "-//W3C//DTD SVG 1.1//EN" "http://www.w3.org/Graphics/SVG/1.1/DTD/svg11.dtd">

<!-- Uploaded to: SVG Repo, www.svgrepo.com, Transformed by: SVG Repo Mixer Tools -->
<svg fill="#333333" version="1.1" id="Capa_1" xmlns="http://www.w3.org/2000/svg" xmlns:xlink="http://www.w3.org/1999/xlink" width="64px" height="64px" viewBox="-2.74 -2.74 32.89 32.89" xml:space="preserve" stroke="#333333" stroke-width="0.00027414000000000003">

<g id="SVGRepo_bgCarrier" stroke-width="0">

<rect x="-2.74" y="-2.74" width="32.89" height="32.89" rx="16.445" fill="#b8edff" strokewidth="0"/>

</g>

<g id="SVGRepo_tracerCarrier" stroke-linecap="round" stroke-linejoin="round"/>

<g id="SVGRepo_iconCarrier"> <g> <path d="M25.699,0.039c-0.945,0-1.713,0.767-1.713,1.713c0,0.529,0.244,0.996,0.621,1.311L20.558,7.92l-2.047-4.604 c0.602-0.267,1.02-0.865,1.02-1.563c0-0.946-0.768-1.713-1.713-1.713c-0.947,0-1.715,0.767-1.715,1.713 c0,0.595,0.305,1.118,0.766,1.425l-3.163,4.741l-3.162-4.743c0.459-0.307,0.764-0.83,0.764-1.425c0-0.946-0.768-1.713-1.714-1.713 c-0.946,0-1.713,0.767-1.713,1.713c0,0.699,0.418,1.297,1.019,1.563L6.853,7.918L2.805,3.061C3.182,2.746,3.426,2.279,3.426,1.75 c0-0.946-0.767-1.713-1.713-1.713C0.767,0.037,0,0.804,0,1.75c0,0.946,0.767,1.713,1.713,1.713c0.143,0,0.281-0.023,0.414-0.056 l2.847,11.384c0.091,0.366,0.475,0.665,0.852,0.665h3.518c0,1.058,1.503,1.938,3.5,2.138c-0.001,0.016-0.009,0.028-0.009,0.045 v5.227h-2.373c-0.361,0-0.655,0.293-0.654,0.654c0,0.36,0.293,0.653,0.654,0.653h2.373v0.437h-1.309 c-0.362,0-0.655,0.293-0.655,0.654c0,0.362,0.294,0.655,0.655,0.655h1.31v0.586c0,0.481,0.391,0.872,0.873,0.872 s0.873-0.391,0.873-0.872v-8.866c0-0.017-0.008-0.029-0.009-0.045c1.995-0.199,3.499-1.08,3.499-2.138h3.518 c0.377,0,0.762-0.299,0.852-0.665l2.846-11.382c0.133,0.033,0.27,0.056,0.414,0.056c0.945,0,1.713-0.767,1.713-1.713 C27.414,0.806,26.644,0.039,25.699,0.039z M13.706,16.768c-1.83,0-3.313-0.586-3.313-1.31h6.624 C17.019,16.182,15.537,16.768,13.706,16.768z"/> </g> </g>

</svg>