<?xml version="1.0" encoding="UTF-8" standalone="no"?>
<!-- Created with Inkscape (http://www.inkscape.org/) -->

<svg
   version="1.1"
   id="svg2603"
   width="718"
   height="718"
   viewBox="0 0 350 350"
   sodipodi:docname="landscape-nature-publicdomainvectors.org.svg"
   inkscape:version="1.2 (dc2aedaf03, 2022-05-15)"
   xmlns:inkscape="http://www.inkscape.org/namespaces/inkscape"
   xmlns:sodipodi="http://sodipodi.sourceforge.net/DTD/sodipodi-0.dtd"
   xmlns="http://www.w3.org/2000/svg"
   xmlns:svg="http://www.w3.org/2000/svg">
  <defs
     id="defs2607">
    <clipPath
       clipPathUnits="userSpaceOnUse"
       id="clipPath2623">
      <path
         d="M 0,660 H 660 V 0 H 0 Z"
         id="path2621" />
    </clipPath>
  </defs>
  <sodipodi:namedview
     id="namedview2605"
     pagecolor="#ffffff"
     bordercolor="#000000"
     borderopacity="0.25"
     inkscape:showpageshadow="2"
     inkscape:pageopacity="0.0"
     inkscape:pagecheckerboard="0"
     inkscape:deskcolor="#d1d1d1"
     showgrid="false"
     inkscape:zoom="0.95113636"
     inkscape:cx="402.15054"
     inkscape:cy="440.52569"
     inkscape:window-width="1920"
     inkscape:window-height="1017"
     inkscape:window-x="-8"
     inkscape:window-y="-8"
     inkscape:window-maximized="1"
     inkscape:current-layer="g2611">
    <inkscape:page
       x="0"
       y="0"
       id="page2609"
       width="880"
       height="880" />
  </sodipodi:namedview>
  <g
     id="g2611"
     inkscape:groupmode="layer"
     inkscape:label="Page 1"
     transform="matrix(1.3333333,0,0,-1.3333333,0,880)">
    <g
       id="g2613"
       transform="translate(1.7226,659.9997)">
      <path
         d="M 0,0 V -116.99 -658.962 H 658.277 V 0 Z"
         style="fill:#96d0db;fill-opacity:1;fill-rule:nonzero;stroke:none"
         id="path2615" />
    </g>
    <g
       id="g2617">
      <g
         id="g2619"
         clip-path="url(#clipPath2623)">
        <g
           id="g2625"
           transform="translate(660.6846,617.605)">
          <path
             d="m 0,0 v -28.617 c -19.959,3.658 -40.728,11.033 -63.607,-5.441 -23.856,-17.175 7.887,-5.274 18.965,-4.096 18.76,1.989 32.06,-2.439 44.642,-5.857 v -8.422 c -30.135,5.456 -33.846,8.235 -70.272,-3.653 -34.064,-11.119 -22.428,19.19 -26.071,30.333 -6.76,1.888 -34.296,-13.069 -53.247,-11.902 -18.979,1.167 -29.972,3.597 -49.983,2.448 -6.498,-0.62 -68.519,-6.516 -66.061,-14.796 0.289,-0.971 23.12,-18.343 -13.251,-17.617 -28.37,0.567 -50.535,29.273 -75.769,19.491 -5.366,-2.079 -29.333,-8.322 -30.61,-9.577 -3.811,-3.74 5.14,-4.517 9.025,-5.387 10.361,-2.322 37.529,-7.248 35.897,-22.508 -1.037,-9.693 -24.096,-7.851 -33.071,-8.512 -18.037,-1.45 -52.434,-8.646 -67.503,2.595 -28.708,24.172 -29.438,67.144 -83.142,43.984 -41.865,-18.053 -69.566,20.464 -106.059,-3.784 -12.605,-8.374 -20.896,-16.607 -28.845,-23.278 v 64.802 c 17.947,12.458 39.063,23.389 77.662,14.629 41.715,-9.468 42.409,-1.277 81.531,10.426 69.737,20.297 57.118,10.728 124.975,-2.61 36.922,-7.327 66.237,-17.267 104.746,-16.101 20.861,0.983 41.544,3.993 62.171,7.121 32.004,4.558 59.94,5.669 91.564,8.47 34.262,3.033 63.007,14.627 95.094,-1.994 C -12.68,5.724 -6.098,2.45 0,0"
             style="fill:#a9e1ed;fill-opacity:1;fill-rule:evenodd;stroke:none"
             id="path2627" />
        </g>
        <path
           d="M 660.685,1.038 H 1.723 v 256.616 h 658.962 z"
           style="fill:#478099;fill-opacity:1;fill-rule:evenodd;stroke:none"
           id="path2629" />
        <g
           id="g2631"
           transform="translate(8.0669,71.9375)">
          <path
             d="M 0,0 2.98,4.651 5.961,9.302 H 3.684 l 0.621,0.826 4.305,5.724 H 4.973 l 1.385,1.329 6.359,6.104 H 6.831 l 1.648,1.582 8.477,8.137 H 0 -6.345 V 17.167 l 1.371,-1.315 H -6.345 V 12.84 l 2.039,-2.712 0.621,-0.826 H -5.962 L -2.98,4.651 Z"
             style="fill:#407288;fill-opacity:1;fill-rule:evenodd;stroke:none"
             id="path2633" />
        </g>
        <g
           id="g2635"
           transform="translate(18.7402,66.2549)">
          <path
             d="m 0,0 2.982,4.651 2.98,4.651 H 3.685 l 0.621,0.826 4.305,5.724 H 4.974 l 1.385,1.329 6.359,6.104 H 6.833 l 1.646,1.578 8.478,8.139 H 0 -16.955 l 8.478,-8.139 1.646,-1.578 h -5.886 l 6.359,-6.104 1.385,-1.329 H -8.61 l 4.305,-5.724 0.621,-0.826 H -5.96 l 2.98,-4.651 z"
             style="fill:#407288;fill-opacity:1;fill-rule:evenodd;stroke:none"
             id="path2637" />
        </g>
        <g
           id="g2639"
           transform="translate(30.7075,79.499)">
          <path
             d="m 0,0 2.982,4.651 2.98,4.651 H 3.685 l 0.621,0.823 4.305,5.724 H 4.974 l 1.385,1.328 6.359,6.105 H 6.832 l 1.647,1.58 8.478,8.139 H 0 -16.957 l 8.479,-8.139 1.647,-1.58 h -5.886 l 6.359,-6.105 1.384,-1.328 H -8.61 l 4.305,-5.724 0.62,-0.823 H -5.961 L -2.98,4.651 Z"
             style="fill:#407288;fill-opacity:1;fill-rule:evenodd;stroke:none"
             id="path2641" />
        </g>
        <g
           id="g2643"
           transform="translate(44.7007,80.4805)">
          <path
             d="m 0,0 2.981,4.651 2.98,4.651 H 3.685 l 0.62,0.826 4.306,5.724 H 4.974 l 1.385,1.328 6.359,6.104 H 6.832 l 1.647,1.582 8.477,8.138 H 0 -16.957 l 8.479,-8.138 1.646,-1.582 h -5.886 l 6.359,-6.104 1.385,-1.328 H -8.61 l 4.305,-5.724 0.62,-0.826 h -2.276 l 2.98,-4.651 z"
             style="fill:#407288;fill-opacity:1;fill-rule:evenodd;stroke:none"
             id="path2645" />
        </g>
        <g
           id="g2647"
           transform="translate(61.8906,83.3408)">
          <path
             d="M 0,0 2.98,4.65 5.962,9.302 H 3.685 l 0.62,0.826 4.306,5.723 H 4.974 l 1.385,1.329 6.358,6.104 H 6.832 l 1.647,1.58 8.478,8.138 H 0 -16.956 l 8.477,-8.138 1.648,-1.58 h -5.886 l 6.358,-6.104 1.385,-1.329 H -8.61 l 4.304,-5.723 0.622,-0.826 H -5.961 L -2.98,4.65 Z"
             style="fill:#407288;fill-opacity:1;fill-rule:evenodd;stroke:none"
             id="path2649" />
        </g>
        <g
           id="g2651"
           transform="translate(75.3594,96.2549)">
          <path
             d="M 0,0 2.981,4.648 5.962,9.301 H 3.685 l 0.621,0.824 4.305,5.722 H 4.974 l 1.385,1.331 6.359,6.102 H 6.832 L 8.479,24.862 16.957,33 H 0 -16.956 l 8.478,-8.138 1.647,-1.582 h -5.885 l 6.358,-6.102 1.385,-1.331 H -8.61 l 4.305,-5.722 0.621,-0.824 H -5.96 l 2.98,-4.653 z"
             style="fill:#407288;fill-opacity:1;fill-rule:evenodd;stroke:none"
             id="path2653" />
        </g>
        <g
           id="g2655"
           transform="translate(85.2021,110.6904)">
          <path
             d="M 0,0 2.981,4.65 5.962,9.302 H 3.685 l 0.62,0.824 4.306,5.724 H 4.974 l 1.385,1.329 6.359,6.104 H 6.832 l 1.647,1.58 8.478,8.138 H 0 -16.957 l 8.478,-8.138 1.648,-1.58 h -5.886 l 6.358,-6.104 1.385,-1.329 H -8.61 l 4.304,-5.724 0.621,-0.824 H -5.961 L -2.98,4.65 Z"
             style="fill:#407288;fill-opacity:1;fill-rule:evenodd;stroke:none"
             id="path2657" />
        </g>
        <g
           id="g2659"
           transform="translate(94.5039,119.6191)">
          <path
             d="M 0,0 2.981,4.649 5.961,9.3 H 3.684 l 0.621,0.827 4.306,5.721 H 4.974 l 1.384,1.331 6.36,6.102 H 6.832 l 1.647,1.582 8.478,8.138 H 0 -16.956 l 8.477,-8.138 1.648,-1.582 h -5.886 l 6.358,-6.102 1.385,-1.331 H -8.61 L -4.306,10.127 -3.685,9.3 H -5.961 L -2.98,4.649 Z"
             style="fill:#407288;fill-opacity:1;fill-rule:evenodd;stroke:none"
             id="path2661" />
        </g>
        <g
           id="g2663"
           transform="translate(107.9961,122.3428)">
          <path
             d="M 0,0 2.981,4.649 5.961,9.3 H 3.684 l 0.621,0.826 4.305,5.722 H 4.973 l 1.385,1.331 6.36,6.102 H 6.831 l 1.648,1.582 8.477,8.138 H 0 -16.956 l 8.477,-8.138 1.648,-1.582 h -5.886 l 6.358,-6.102 1.385,-1.331 H -8.611 L -4.306,10.126 -3.685,9.3 H -5.961 L -2.98,4.649 Z"
             style="fill:#407288;fill-opacity:1;fill-rule:evenodd;stroke:none"
             id="path2665" />
        </g>
        <g
           id="g2667"
           transform="translate(119.8159,134.0186)">
          <path
             d="m 0,0 2.981,4.651 2.98,4.651 H 3.685 l 0.62,0.826 4.307,5.722 H 4.973 l 1.386,1.329 6.359,6.104 H 6.831 l 1.647,1.58 8.478,8.138 H 0 -16.956 l 8.478,-8.138 1.646,-1.58 h -5.885 l 6.359,-6.104 1.385,-1.329 H -8.61 l 4.305,-5.722 0.621,-0.826 H -5.96 l 2.98,-4.651 z"
             style="fill:#407288;fill-opacity:1;fill-rule:evenodd;stroke:none"
             id="path2669" />
        </g>
        <g
           id="g2671"
           transform="translate(129.3516,144.8447)">
          <path
             d="M 0,0 2.98,4.651 5.959,9.302 H 3.683 L 4.304,10.127 8.61,15.85 H 4.973 l 1.384,1.329 6.36,6.104 H 6.83 l 1.649,1.58 8.477,8.138 H 0 -16.958 l 8.479,-8.138 1.646,-1.58 h -5.885 l 6.358,-6.104 1.385,-1.329 h -3.637 l 4.305,-5.723 0.621,-0.825 h -2.276 l 2.981,-4.651 z"
             style="fill:#407288;fill-opacity:1;fill-rule:evenodd;stroke:none"
             id="path2673" />
        </g>
        <g
           id="g2675"
           transform="translate(145.8135,151.3643)">
          <path
             d="m 0,0 2.981,4.65 2.98,4.652 H 3.683 L 4.305,10.126 8.61,15.85 H 4.973 l 1.384,1.329 6.361,6.104 H 6.832 l 1.647,1.58 8.477,8.138 H 0 -16.957 l 8.479,-8.138 1.645,-1.58 h -5.885 l 6.359,-6.104 1.384,-1.329 H -8.61 l 4.303,-5.724 0.622,-0.824 H -5.963 L -2.981,4.65 Z"
             style="fill:#407288;fill-opacity:1;fill-rule:evenodd;stroke:none"
             id="path2677" />
        </g>
        <g
           id="g2679"
           transform="translate(161.3545,165.2207)">
          <path
             d="m 0,0 2.981,4.65 2.98,4.652 H 3.683 L 4.305,10.126 8.61,15.85 H 4.973 l 1.384,1.329 6.361,6.104 H 6.832 l 1.647,1.58 8.477,8.138 H 0 -16.957 l 8.479,-8.138 1.646,-1.58 h -5.886 l 6.359,-6.104 1.384,-1.329 H -8.61 l 4.303,-5.724 0.622,-0.824 H -5.962 L -2.981,4.65 Z"
             style="fill:#407288;fill-opacity:1;fill-rule:evenodd;stroke:none"
             id="path2681" />
        </g>
        <g
           id="g2683"
           transform="translate(178.8369,168.8867)">
          <path
             d="M 0,0 2.98,4.65 5.961,9.302 H 3.685 l 0.62,0.824 4.305,5.724 H 4.973 l 1.386,1.329 6.357,6.104 H 6.831 l 1.648,1.58 8.477,8.138 H 0 -16.956 l 8.477,-8.138 1.648,-1.58 h -5.886 l 6.358,-6.104 1.386,-1.329 h -3.639 l 4.307,-5.724 0.62,-0.824 H -5.961 L -2.98,4.65 Z"
             style="fill:#407288;fill-opacity:1;fill-rule:evenodd;stroke:none"
             id="path2685" />
        </g>
        <g
           id="g2687"
           transform="translate(191.27,183.0586)">
          <path
             d="m 0,0 2.981,4.652 2.98,4.65 H 3.683 L 4.305,10.128 8.61,15.85 H 4.973 l 1.384,1.33 6.361,6.103 H 6.831 l 1.647,1.581 8.478,8.139 H 0 -16.958 l 8.479,-8.139 1.646,-1.581 h -5.885 l 6.359,-6.103 1.384,-1.33 H -8.61 l 4.303,-5.722 0.62,-0.826 h -2.276 l 2.982,-4.65 z"
             style="fill:#407288;fill-opacity:1;fill-rule:evenodd;stroke:none"
             id="path2689" />
        </g>
        <g
           id="g2691"
           transform="translate(208.8818,182.5879)">
          <path
             d="M 0,0 2.982,4.651 5.963,9.3 H 3.685 l 0.622,0.826 4.303,5.722 H 4.975 l 1.384,1.331 6.359,6.102 H 6.833 l 1.646,1.582 8.479,8.138 H 0 -16.956 l 8.477,-8.138 1.649,-1.582 h -5.886 l 6.359,-6.102 1.384,-1.331 H -8.61 L -4.305,10.126 -3.683,9.3 h -2.276 l 2.98,-4.649 z"
             style="fill:#407288;fill-opacity:1;fill-rule:evenodd;stroke:none"
             id="path2693" />
        </g>
        <g
           id="g2695"
           transform="translate(224.9424,192.9795)">
          <path
             d="m 0,0 2.981,4.65 2.98,4.652 H 3.683 L 4.305,10.128 8.61,15.85 H 4.973 l 1.384,1.33 6.361,6.102 H 6.831 l 1.648,1.582 8.477,8.139 H 0 -16.957 l 8.478,-8.139 1.646,-1.582 h -5.885 l 6.359,-6.102 1.384,-1.33 H -8.61 l 4.303,-5.722 0.622,-0.826 h -2.276 l 2.98,-4.652 z"
             style="fill:#407288;fill-opacity:1;fill-rule:evenodd;stroke:none"
             id="path2697" />
        </g>
        <g
           id="g2699"
           transform="translate(224.9424,225.9824)">
          <path
             d="m 0,0 h -223.22 v -121.041 l 15.882,-12.771 25.821,10.611 37.306,14.886 14.547,27.957 21.197,9.719 25.514,22.502 32.083,16.307 22.093,17.368 29.674,4.069 z"
             style="fill:#407288;fill-opacity:1;fill-rule:evenodd;stroke:none"
             id="path2701" />
        </g>
        <g
           id="g2703"
           transform="translate(407.5586,178.1348)">
          <path
             d="M 0,0 3.221,3.035 6.443,6.072 H 3.981 l 0.673,0.539 4.653,3.736 H 5.376 l 1.497,0.869 6.872,3.984 H 7.383 l 1.78,1.033 9.164,5.313 H 0 -18.327 l 9.163,-5.313 1.779,-1.033 h -6.36 l 6.872,-3.984 1.497,-0.869 h -3.931 l 4.655,-3.736 0.67,-0.539 h -2.461 l 3.22,-3.037 z"
             style="fill:#407288;fill-opacity:1;fill-rule:evenodd;stroke:none"
             id="path2705" />
        </g>
        <g
           id="g2707"
           transform="translate(423.1523,169.2578)">
          <path
             d="m 0,0 3.221,3.035 3.22,3.037 H 3.98 L 4.652,6.61 9.305,10.347 H 5.374 l 1.497,0.869 6.872,3.984 H 7.382 l 1.781,1.032 9.163,5.314 H 0 -18.329 l 9.163,-5.314 1.781,-1.032 h -6.362 l 6.873,-3.984 1.497,-0.869 H -9.308 L -4.654,6.61 -3.983,6.072 h -2.461 l 3.221,-3.037 z"
             style="fill:#407288;fill-opacity:1;fill-rule:evenodd;stroke:none"
             id="path2709" />
        </g>
        <g
           id="g2711"
           transform="translate(439.2393,166.2256)">
          <path
             d="M 0,0 3.221,3.035 6.443,6.072 H 3.981 l 0.671,0.54 4.655,3.736 H 5.376 l 1.496,0.868 6.873,3.984 H 7.383 l 1.78,1.032 9.164,5.314 H 0 -18.327 l 9.162,-5.314 1.78,-1.032 h -6.36 l 6.872,-3.984 1.497,-0.868 h -3.931 l 4.653,-3.736 0.671,-0.54 h -2.46 l 3.22,-3.037 z"
             style="fill:#407288;fill-opacity:1;fill-rule:evenodd;stroke:none"
             id="path2713" />
        </g>
        <g
           id="g2715"
           transform="translate(457.2607,156.5518)">
          <path
             d="M 0,0 3.221,3.035 6.443,6.072 H 3.982 l 0.672,0.539 4.653,3.736 H 5.376 l 1.498,0.868 6.871,3.985 h -6.36 l 1.779,1.032 9.163,5.314 H 0 -18.327 l 9.164,-5.314 1.779,-1.032 h -6.361 l 6.874,-3.985 1.495,-0.868 h -3.931 l 4.655,-3.736 0.671,-0.539 h -2.462 l 3.222,-3.037 z"
             style="fill:#407288;fill-opacity:1;fill-rule:evenodd;stroke:none"
             id="path2717" />
        </g>
        <g
           id="g2719"
           transform="translate(476.4297,158.0723)">
          <path
             d="m 0,0 3.221,3.037 3.22,3.037 h -2.46 l 0.671,0.538 4.655,3.737 H 5.374 l 1.497,0.867 6.874,3.984 H 7.383 l 1.78,1.034 9.163,5.314 H 0 -18.327 l 9.161,-5.314 1.781,-1.034 h -6.36 l 6.871,-3.984 1.498,-0.867 h -3.932 l 4.654,-3.737 0.671,-0.538 h -2.46 l 3.22,-3.037 z"
             style="fill:#407288;fill-opacity:1;fill-rule:evenodd;stroke:none"
             id="path2721" />
        </g>
        <g
           id="g2723"
           transform="translate(494.5605,148.1807)">
          <path
             d="m 0,0 3.221,3.035 3.221,3.037 h -2.46 l 0.67,0.539 4.653,3.736 H 5.374 l 1.498,0.869 6.873,3.986 H 7.383 l 1.78,1.03 9.164,5.314 H 0 -18.328 l 9.163,-5.314 1.78,-1.03 h -6.36 l 6.872,-3.986 1.497,-0.869 h -3.931 l 4.653,-3.736 0.671,-0.539 h -2.46 l 3.22,-3.037 z"
             style="fill:#407288;fill-opacity:1;fill-rule:evenodd;stroke:none"
             id="path2725" />
        </g>
        <g
           id="g2727"
           transform="translate(466.4248,161.8652)">
          <path
             d="M 0,0 3.222,3.035 6.443,6.072 H 3.982 l 0.671,0.539 4.654,3.736 H 5.376 l 1.497,0.868 6.872,3.985 H 7.384 l 1.779,1.032 9.163,5.314 H 0 -18.327 l 9.163,-5.314 1.781,-1.032 h -6.362 l 6.873,-3.985 1.496,-0.868 h -3.932 l 4.655,-3.736 0.672,-0.539 h -2.463 l 3.222,-3.037 z"
             style="fill:#407288;fill-opacity:1;fill-rule:evenodd;stroke:none"
             id="path2729" />
        </g>
        <g
           id="g2731"
           transform="translate(512.6914,141.5215)">
          <path
             d="m 0,0 3.222,3.037 3.22,3.037 h -2.46 l 0.671,0.537 4.653,3.738 H 5.375 l 1.497,0.868 6.874,3.985 H 7.383 l 1.781,1.031 9.163,5.315 H 0 -18.328 l 9.163,-5.315 1.781,-1.031 h -6.361 l 6.872,-3.985 1.497,-0.868 h -3.931 l 4.653,-3.738 0.672,-0.537 h -2.461 l 3.221,-3.037 z"
             style="fill:#407288;fill-opacity:1;fill-rule:evenodd;stroke:none"
             id="path2733" />
        </g>
        <g
           id="g2735"
           transform="translate(530.3037,145.707)">
          <path
             d="m 0,0 3.223,3.036 3.22,3.037 h -2.46 l 0.671,0.538 4.653,3.738 H 5.376 l 1.497,0.868 6.872,3.985 h -6.36 l 1.778,1.031 9.165,5.314 H 0 -18.327 l 9.164,-5.314 1.78,-1.031 h -6.362 l 6.873,-3.985 1.496,-0.868 h -3.929 l 4.653,-3.738 0.671,-0.538 h -2.46 l 3.22,-3.037 z"
             style="fill:#407288;fill-opacity:1;fill-rule:evenodd;stroke:none"
             id="path2737" />
        </g>
        <g
           id="g2739"
           transform="translate(538.5938,139.8096)">
          <path
             d="m 0,0 3.221,3.037 3.22,3.035 h -2.46 l 0.671,0.54 4.655,3.737 H 5.374 l 1.498,0.867 6.873,3.986 H 7.383 l 1.78,1.032 9.164,5.314 H 0 -18.327 l 9.162,-5.314 1.78,-1.032 h -6.36 l 6.872,-3.986 1.497,-0.867 h -3.931 l 4.653,-3.737 0.671,-0.54 h -2.46 l 3.22,-3.035 z"
             style="fill:#407288;fill-opacity:1;fill-rule:evenodd;stroke:none"
             id="path2741" />
        </g>
        <g
           id="g2743"
           transform="translate(556.6436,135.0605)">
          <path
             d="M 0,0 3.222,3.036 6.444,6.072 H 3.981 l 0.673,0.54 4.654,3.736 H 5.376 l 1.498,0.868 6.871,3.985 H 7.383 l 1.781,1.031 9.163,5.315 H 0 -18.326 l 9.163,-5.315 1.779,-1.031 h -6.361 l 6.872,-3.985 1.497,-0.868 h -3.931 l 4.654,-3.736 0.672,-0.54 h -2.462 l 3.221,-3.036 z"
             style="fill:#407288;fill-opacity:1;fill-rule:evenodd;stroke:none"
             id="path2745" />
        </g>
        <g
           id="g2747"
           transform="translate(565.8076,135.0605)">
          <path
             d="M 0,0 3.221,3.036 6.443,6.072 H 3.982 l 0.672,0.54 4.653,3.736 H 5.376 l 1.497,0.868 6.872,3.985 H 7.383 l 1.78,1.031 9.164,5.315 H 0 -18.327 l 9.163,-5.315 1.779,-1.031 h -6.36 l 6.871,-3.985 1.498,-0.868 h -3.931 l 4.653,-3.736 0.673,-0.54 h -2.462 l 3.222,-3.036 z"
             style="fill:#407288;fill-opacity:1;fill-rule:evenodd;stroke:none"
             id="path2749" />
        </g>
        <g
           id="g2751"
           transform="translate(573.8545,130.4268)">
          <path
             d="M 0,0 3.221,3.035 6.443,6.072 H 3.981 l 0.673,0.54 4.653,3.736 H 5.376 l 1.497,0.868 6.872,3.984 H 7.383 l 1.78,1.032 9.164,5.316 H 0 -18.327 l 9.164,-5.316 1.778,-1.032 h -6.36 l 6.872,-3.984 1.497,-0.868 h -3.931 l 4.653,-3.736 0.672,-0.54 h -2.461 l 3.22,-3.037 z"
             style="fill:#407288;fill-opacity:1;fill-rule:evenodd;stroke:none"
             id="path2753" />
        </g>
        <g
           id="g2755"
           transform="translate(585.6533,125.5488)">
          <path
             d="m 0,0 3.223,3.036 3.22,3.036 h -2.46 l 0.671,0.539 4.654,3.736 H 5.376 l 1.498,0.868 6.871,3.985 h -6.36 l 1.779,1.033 9.163,5.313 H 0 -18.326 l 9.163,-5.313 1.78,-1.033 h -6.362 l 6.874,-3.985 1.495,-0.868 h -3.931 l 4.655,-3.736 0.671,-0.539 h -2.462 l 3.222,-3.036 z"
             style="fill:#407288;fill-opacity:1;fill-rule:evenodd;stroke:none"
             id="path2757" />
        </g>
        <g
           id="g2759"
           transform="translate(600.6768,126.3086)">
          <path
             d="M 0,0 3.221,3.037 6.443,6.074 H 3.983 L 4.654,6.612 9.307,10.35 H 5.376 l 1.498,0.866 6.871,3.986 h -6.36 l 1.779,1.032 9.163,5.314 H 0 -18.326 l 9.163,-5.314 1.779,-1.032 h -6.361 l 6.874,-3.986 1.495,-0.866 h -3.931 l 4.655,-3.738 0.67,-0.538 h -2.461 l 3.222,-3.037 z"
             style="fill:#407288;fill-opacity:1;fill-rule:evenodd;stroke:none"
             id="path2761" />
        </g>
        <g
           id="g2763"
           transform="translate(610.8906,122.8164)">
          <path
             d="m 0,0 3.223,3.037 3.22,3.037 h -2.46 l 0.671,0.538 4.654,3.737 H 5.376 l 1.498,0.869 6.872,3.984 H 7.385 l 1.781,1.032 9.163,5.314 H 0 -18.326 l 9.163,-5.314 1.781,-1.032 h -6.363 l 6.874,-3.984 1.495,-0.869 H -9.305 L -4.652,6.612 -3.98,6.074 h -2.461 l 3.22,-3.037 z"
             style="fill:#407288;fill-opacity:1;fill-rule:evenodd;stroke:none"
             id="path2765" />
        </g>
        <g
           id="g2767"
           transform="translate(625.542,116.5938)">
          <path
             d="m 0,0 3.223,3.036 3.22,3.036 H 3.982 l 0.672,0.54 4.653,3.736 H 5.376 l 1.497,0.868 6.872,3.985 H 7.384 l 1.781,1.031 9.163,5.316 H 0 -18.327 l 9.163,-5.316 1.781,-1.031 h -6.362 l 6.873,-3.985 1.496,-0.868 h -3.93 l 4.654,-3.736 0.67,-0.54 h -2.46 l 3.221,-3.036 z"
             style="fill:#407288;fill-opacity:1;fill-rule:evenodd;stroke:none"
             id="path2769" />
        </g>
        <g
           id="g2771"
           transform="translate(640.5654,116.9756)">
          <path
             d="m 0,0 3.223,3.035 3.22,3.037 H 3.982 L 4.654,6.61 9.307,10.347 H 5.376 l 1.497,0.868 6.872,3.985 H 7.384 l 1.779,1.032 9.165,5.314 H 0 -18.327 l 9.163,-5.314 1.781,-1.032 h -6.362 l 6.873,-3.985 1.496,-0.868 h -3.93 L -4.653,6.61 -3.981,6.072 h -2.461 l 3.221,-3.037 z"
             style="fill:#407288;fill-opacity:1;fill-rule:evenodd;stroke:none"
             id="path2773" />
        </g>
        <g
           id="g2775"
           transform="translate(653.3018,121.6211)">
          <path
             d="m 0,0 3.221,3.037 3.22,3.035 h -2.46 l 0.671,0.54 2.731,2.192 v 1.545 H 5.374 l 1.498,0.867 0.511,0.297 v 3.689 6.346 H 0 -18.328 l 9.163,-5.314 1.781,-1.032 h -6.363 l 6.874,-3.986 1.497,-0.867 h -3.931 l 4.653,-3.737 0.671,-0.54 h -2.46 l 3.22,-3.035 z"
             style="fill:#407288;fill-opacity:1;fill-rule:evenodd;stroke:none"
             id="path2777" />
        </g>
        <g
           id="g2779"
           transform="translate(643.0996,108.4404)">
          <path
             d="M 0,0 3.221,3.037 6.443,6.072 H 3.981 l 0.671,0.54 4.655,3.736 H 5.374 l 1.498,0.868 6.873,3.985 H 7.383 l 1.78,1.031 8.422,4.884 v 0.43 H 0 -18.327 l 9.162,-5.314 1.78,-1.031 h -6.36 l 6.872,-3.985 1.497,-0.868 h -3.931 l 4.653,-3.736 0.671,-0.54 h -2.46 l 3.22,-3.035 z"
             style="fill:#407288;fill-opacity:1;fill-rule:evenodd;stroke:none"
             id="path2781" />
        </g>
        <g
           id="g2783"
           transform="translate(656.8916,107.8301)">
          <path
             d="m 0,0 3.223,3.037 0.57,0.536 V 21.548 H 0 -18.326 l 9.163,-5.314 1.781,-1.032 h -6.363 l 6.874,-3.984 1.497,-0.869 h -3.931 l 4.653,-3.737 0.671,-0.538 h -2.462 l 3.222,-3.037 z"
             style="fill:#407288;fill-opacity:1;fill-rule:evenodd;stroke:none"
             id="path2785" />
        </g>
        <g
           id="g2787"
           transform="translate(511.6543,152.7471)">
          <path
             d="m 0,0 3.223,3.035 3.22,3.037 H 3.983 L 4.654,6.61 9.308,10.347 H 5.376 l 1.498,0.869 6.872,3.984 H 7.385 l 1.781,1.032 9.163,5.314 H 0 -18.326 l 9.163,-5.314 1.781,-1.032 h -6.363 l 6.874,-3.984 1.495,-0.869 H -9.305 L -4.652,6.61 -3.98,6.072 h -2.461 l 3.22,-3.037 z"
             style="fill:#407288;fill-opacity:1;fill-rule:evenodd;stroke:none"
             id="path2789" />
        </g>
        <g
           id="g2791"
           transform="translate(501.1807,156.9258)">
          <path
             d="M 0,0 3.222,3.035 6.443,6.072 H 3.981 L 4.653,6.61 9.308,10.347 H 5.375 l 1.497,0.869 6.873,3.984 H 7.383 l 1.781,1.032 9.163,5.314 H 0 -18.328 l 9.163,-5.314 1.781,-1.032 h -6.361 l 6.872,-3.984 1.497,-0.869 H -9.307 L -4.654,6.61 -3.983,6.072 h -2.46 l 3.221,-3.037 z"
             style="fill:#407288;fill-opacity:1;fill-rule:evenodd;stroke:none"
             id="path2793" />
        </g>
        <g
           id="g2795"
           transform="translate(486.1572,159.5879)">
          <path
             d="M 0,0 3.223,3.036 6.444,6.073 H 3.983 l 0.671,0.539 4.654,3.736 H 5.376 l 1.498,0.868 6.871,3.985 h -6.36 l 1.779,1.032 9.165,5.314 H 0 -18.326 l 9.163,-5.314 1.781,-1.032 h -6.363 l 6.874,-3.985 1.495,-0.868 h -3.929 l 4.653,-3.736 0.671,-0.539 h -2.46 l 3.22,-3.037 z"
             style="fill:#407288;fill-opacity:1;fill-rule:evenodd;stroke:none"
             id="path2797" />
        </g>
        <g
           id="g2799"
           transform="translate(413.5029,199.6807)">
          <path
             d="m 0,0 h 247.182 v -76.746 l -42.92,11.1 -5.334,2.977 -46.623,8.821 1.035,0.882 -14.78,7.237 -35.138,5.902 -51.235,15.365 -26.451,1.779 -9.163,10.774 -22.517,1.137 z"
             style="fill:#407288;fill-opacity:1;fill-rule:evenodd;stroke:none"
             id="path2801" />
        </g>
        <g
           id="g2803"
           transform="translate(1.7222,495.9512)">
          <path
             d="m 0,0 47.404,47.405 43.202,24.943 22.893,-13.218 37.004,21.364 35.217,-61 21.861,12.62 50.269,-87.068 15.239,4.998 25.385,-58.39 19.433,33.787 65.082,65.083 23.606,-6.325 60.259,60.259 20.689,-11.946 46.396,46.394 57.665,-57.665 26.889,15.524 40.469,-42.981 v -232.081 l -658.962,0 z"
             style="fill:#5799ae;fill-opacity:1;fill-rule:evenodd;stroke:none"
             id="path2805" />
        </g>
        <g
           id="g2807"
           transform="translate(10.5322,504.7617)">
          <path
             d="m 0,0 54.396,27.971 21.758,-17.095 25.384,18.13 22.276,-4.66 27.456,-40.926 17.613,14.504 30.047,-29.007 12.951,11.396 L 240.54,-49.039 198.771,23.303 176.91,10.683 141.693,71.684 104.689,50.32 81.796,63.537 38.594,38.595 Z"
             style="fill:#caedf3;fill-opacity:1;fill-rule:evenodd;stroke:none"
             id="path2809" />
        </g>
        <g
           id="g2811"
           transform="translate(343.2676,445.0327)">
          <path
             d="m 0,0 39.219,22.946 33.672,-23.312 47.143,36.263 12.95,-22.277 41.444,30.565 15.023,-21.239 27.455,36.78 21.758,-19.168 25.383,13.987 53.37,-32.119 V 44.703 L 276.947,87.683 250.059,72.159 192.393,129.824 145.998,83.43 125.309,95.376 65.05,35.118 41.443,41.443 Z"
             style="fill:#caedf3;fill-opacity:1;fill-rule:evenodd;stroke:none"
             id="path2813" />
        </g>
        <g
           id="g2815"
           transform="translate(8.0669,479.3779)">
          <path
             d="m 0,0 2.98,-7.651 2.981,-7.651 H 3.684 l 0.621,-1.357 4.305,-9.413 H 4.973 L 6.358,-28.259 12.717,-38.3 H 6.831 l 1.648,-2.6 8.477,-13.388 H 0 -6.345 v 26.052 l 1.371,2.164 h -1.371 v 4.956 l 2.039,4.457 0.621,1.357 h -2.277 l 2.982,7.651 z"
             style="fill:#426481;fill-opacity:1;fill-rule:evenodd;stroke:none"
             id="path2817" />
        </g>
        <g
           id="g2819"
           transform="translate(18.7402,488.7266)">
          <path
             d="m 0,0 2.981,-7.65 2.981,-7.651 H 3.685 l 0.621,-1.358 4.305,-9.413 H 4.974 l 1.385,-2.187 6.359,-10.04 H 6.833 L 8.479,-40.9 16.958,-54.287 H 0 -16.955 l 8.478,13.387 1.646,2.601 h -5.886 l 6.359,10.04 1.385,2.187 H -8.61 l 4.305,9.413 0.621,1.358 h -2.277 l 2.981,7.651 z"
             style="fill:#426481;fill-opacity:1;fill-rule:evenodd;stroke:none"
             id="path2821" />
        </g>
        <g
           id="g2823"
           transform="translate(30.7075,466.9429)">
          <path
             d="m 0,0 2.981,-7.651 2.981,-7.651 H 3.685 l 0.621,-1.359 4.305,-9.413 H 4.974 l 1.385,-2.185 6.359,-10.04 H 6.832 L 8.479,-40.9 16.958,-54.289 H 0 -16.957 l 8.479,13.389 1.647,2.601 h -5.886 l 6.359,10.04 1.384,2.185 H -8.61 l 4.305,9.413 0.62,1.359 h -2.276 l 2.981,7.651 z"
             style="fill:#426481;fill-opacity:1;fill-rule:evenodd;stroke:none"
             id="path2825" />
        </g>
        <g
           id="g2827"
           transform="translate(44.7007,465.3242)">
          <path
             d="m 0,0 2.98,-7.649 2.981,-7.653 H 3.685 l 0.62,-1.356 4.306,-9.414 H 4.974 L 6.359,-28.259 12.718,-38.3 H 6.832 l 1.647,-2.6 8.477,-13.388 H 0 -16.957 l 8.479,13.388 1.646,2.6 h -5.886 l 6.359,10.041 1.385,2.187 H -8.61 l 4.305,9.414 0.62,1.356 h -2.276 l 2.98,7.653 z"
             style="fill:#426481;fill-opacity:1;fill-rule:evenodd;stroke:none"
             id="path2829" />
        </g>
        <g
           id="g2831"
           transform="translate(61.8906,460.6211)">
          <path
             d="M 0,0 2.98,-7.651 5.962,-15.3 H 3.685 l 0.62,-1.359 4.306,-9.413 H 4.974 l 1.385,-2.186 6.358,-10.04 H 6.832 L 8.479,-40.9 16.957,-54.288 H 0 -16.956 l 8.477,13.388 1.648,2.602 h -5.887 l 6.359,10.04 1.385,2.186 H -8.61 l 4.304,9.413 0.622,1.359 h -2.277 l 2.981,7.649 z"
             style="fill:#426481;fill-opacity:1;fill-rule:evenodd;stroke:none"
             id="path2833" />
        </g>
        <g
           id="g2835"
           transform="translate(603.0273,350.2515)">
          <path
             d="M 0,0 -25.272,44.679 -10.505,68.49 -15.066,112.978 -28.354,81.42 -64.299,55.36 -79.332,6.153 l -43.62,-34.452 -17.304,-76.521 z"
             style="fill:#4b8ba4;fill-opacity:1;fill-rule:evenodd;stroke:none"
             id="path2837" />
        </g>
        <g
           id="g2839"
           transform="translate(75.3594,439.3818)">
          <path
             d="m 0,0 2.98,-7.651 2.982,-7.651 H 3.685 l 0.621,-1.357 4.305,-9.413 H 4.974 L 6.359,-28.259 12.718,-38.3 H 6.832 l 1.647,-2.6 8.479,-13.388 H 0 -16.956 l 8.478,13.388 1.647,2.6 h -5.886 l 6.359,10.041 1.385,2.187 H -8.61 l 4.305,9.413 0.621,1.357 h -2.277 l 2.981,7.651 z"
             style="fill:#426481;fill-opacity:1;fill-rule:evenodd;stroke:none"
             id="path2841" />
        </g>
        <g
           id="g2843"
           transform="translate(76.7236,374.7334)">
          <path
             d="m 0,0 34.259,38.227 -9.325,26.421 13.987,42.479 6.217,-33.672 29.527,-33.154 4.145,-51.287 35.227,-42.996 0.509,-78.451 z"
             style="fill:#4b8ba4;fill-opacity:1;fill-rule:evenodd;stroke:none"
             id="path2845" />
        </g>
        <g
           id="g2847"
           transform="translate(85.2021,415.6333)">
          <path
             d="M 0,0 2.981,-7.651 5.962,-15.3 H 3.685 l 0.62,-1.359 4.306,-9.413 H 4.974 l 1.385,-2.187 6.359,-10.04 H 6.832 L 8.479,-40.9 16.957,-54.288 H 0 -16.957 l 8.478,13.388 1.648,2.601 h -5.887 l 6.359,10.04 1.385,2.187 H -8.61 l 4.304,9.413 0.621,1.359 h -2.276 l 2.981,7.649 z"
             style="fill:#426481;fill-opacity:1;fill-rule:evenodd;stroke:none"
             id="path2849" />
        </g>
        <g
           id="g2851"
           transform="translate(94.5039,400.9458)">
          <path
             d="M 0,0 2.981,-7.651 5.961,-15.3 H 3.684 l 0.621,-1.359 4.306,-9.413 H 4.974 l 1.384,-2.186 6.36,-10.04 H 6.832 L 8.479,-40.9 16.957,-54.288 H 0 -16.956 l 8.477,13.388 1.648,2.602 h -5.887 l 6.359,10.04 1.385,2.186 H -8.61 l 4.304,9.413 0.621,1.359 h -2.277 l 2.982,7.649 z"
             style="fill:#426481;fill-opacity:1;fill-rule:evenodd;stroke:none"
             id="path2853" />
        </g>
        <g
           id="g2855"
           transform="translate(107.9961,396.4648)">
          <path
             d="M 0,0 2.981,-7.649 5.961,-15.3 H 3.684 L 4.305,-16.657 8.61,-26.07 H 4.973 l 1.385,-2.187 6.36,-10.041 H 6.831 l 1.648,-2.601 8.479,-13.387 H 0 -16.956 l 8.477,13.387 1.648,2.601 h -5.887 l 6.359,10.041 1.385,2.187 h -3.637 l 4.305,9.413 0.621,1.357 h -2.277 l 2.982,7.651 z"
             style="fill:#426481;fill-opacity:1;fill-rule:evenodd;stroke:none"
             id="path2857" />
        </g>
        <g
           id="g2859"
           transform="translate(119.8159,377.2578)">
          <path
             d="m 0,0 2.979,-7.649 2.982,-7.652 H 3.685 l 0.62,-1.358 4.307,-9.413 H 4.973 l 1.386,-2.187 6.359,-10.04 H 6.831 L 8.478,-40.9 16.957,-54.287 H 0 -16.956 l 8.478,13.387 1.646,2.601 h -5.886 l 6.36,10.04 1.385,2.187 H -8.61 l 4.305,9.413 0.621,1.358 h -2.277 l 2.981,7.652 z"
             style="fill:#426481;fill-opacity:1;fill-rule:evenodd;stroke:none"
             id="path2861" />
        </g>
        <g
           id="g2863"
           transform="translate(129.3516,359.4507)">
          <path
             d="m 0,0 2.98,-7.651 2.979,-7.651 H 3.683 l 0.621,-1.357 4.306,-9.413 H 4.973 l 1.384,-2.187 6.36,-10.041 H 6.83 l 1.649,-2.6 8.477,-13.388 H 0 -16.958 l 8.479,13.388 1.646,2.6 h -5.886 l 6.359,10.041 1.385,2.187 h -3.637 l 4.305,9.413 0.621,1.357 h -2.276 l 2.981,7.651 z"
             style="fill:#426481;fill-opacity:1;fill-rule:evenodd;stroke:none"
             id="path2865" />
        </g>
        <g
           id="g2867"
           transform="translate(145.8135,348.7256)">
          <path
             d="m 0,0 2.98,-7.649 2.981,-7.653 H 3.683 l 0.622,-1.356 4.305,-9.414 H 4.973 L 6.357,-28.26 12.718,-38.3 H 6.832 l 1.647,-2.6 8.479,-13.388 H 0 -16.957 l 8.479,13.388 1.645,2.6 h -5.885 l 6.359,10.04 1.384,2.188 H -8.61 l 4.303,9.414 0.622,1.356 h -2.278 l 2.982,7.653 z"
             style="fill:#426481;fill-opacity:1;fill-rule:evenodd;stroke:none"
             id="path2869" />
        </g>
        <g
           id="g2871"
           transform="translate(161.3545,325.9316)">
          <path
             d="M 0,0 2.98,-7.65 5.961,-15.3 H 3.683 l 0.622,-1.359 4.305,-9.413 H 4.973 l 1.384,-2.188 6.361,-10.038 H 6.832 L 8.479,-40.9 16.958,-54.288 H 0 -16.957 l 8.479,13.388 1.646,2.602 h -5.886 l 6.359,10.038 1.384,2.188 H -8.61 l 4.303,9.413 0.622,1.359 h -2.277 l 2.981,7.65 z"
             style="fill:#426481;fill-opacity:1;fill-rule:evenodd;stroke:none"
             id="path2873" />
        </g>
        <g
           id="g2875"
           transform="translate(178.8369,319.9014)">
          <path
             d="M 0,0 2.98,-7.651 5.961,-15.3 H 3.685 l 0.62,-1.359 4.305,-9.413 H 4.973 L 6.359,-28.26 12.716,-38.3 H 6.831 l 1.648,-2.6 8.477,-13.388 H 0 -16.956 l 8.477,13.388 1.648,2.6 h -5.887 l 6.359,10.04 1.386,2.188 h -3.639 l 4.307,9.413 0.62,1.359 h -2.276 l 2.981,7.649 z"
             style="fill:#426481;fill-opacity:1;fill-rule:evenodd;stroke:none"
             id="path2877" />
        </g>
        <g
           id="g2879"
           transform="translate(191.27,296.5879)">
          <path
             d="m 0,0 2.979,-7.65 2.982,-7.652 H 3.683 l 0.622,-1.357 4.305,-9.414 H 4.973 L 6.357,-28.259 12.718,-38.3 H 6.831 l 1.647,-2.599 8.479,-13.388 H 0 -16.958 l 8.479,13.388 1.646,2.599 h -5.885 l 6.359,10.041 1.384,2.186 H -8.61 l 4.303,9.414 0.62,1.357 h -2.276 l 2.982,7.652 z"
             style="fill:#426481;fill-opacity:1;fill-rule:evenodd;stroke:none"
             id="path2881" />
        </g>
        <g
           id="g2883"
           transform="translate(208.8818,297.3633)">
          <path
             d="m 0,0 2.982,-7.648 2.981,-7.653 H 3.685 L 4.307,-16.657 8.61,-26.07 H 4.975 l 1.384,-2.189 6.359,-10.04 H 6.833 l 1.646,-2.6 8.479,-13.388 H 0 -16.956 l 8.477,13.388 1.649,2.6 h -5.888 l 6.361,10.04 1.384,2.189 H -8.61 l 4.305,9.413 0.622,1.356 h -2.278 l 2.982,7.653 z"
             style="fill:#426481;fill-opacity:1;fill-rule:evenodd;stroke:none"
             id="path2885" />
        </g>
        <g
           id="g2887"
           transform="translate(224.9424,280.2676)">
          <path
             d="M 0,0 2.98,-7.649 5.961,-15.3 H 3.683 L 4.305,-16.657 8.61,-26.07 H 4.973 l 1.384,-2.188 6.361,-10.04 H 6.831 l 1.648,-2.601 8.479,-13.386 H 0 -16.957 l 8.478,13.386 1.646,2.601 h -5.885 l 6.359,10.04 1.384,2.188 H -8.61 l 4.303,9.413 0.622,1.357 h -2.278 l 2.982,7.651 z"
             style="fill:#426481;fill-opacity:1;fill-rule:evenodd;stroke:none"
             id="path2889" />
        </g>
        <g
           id="g2891"
           transform="translate(224.9424,225.9824)">
          <path
             d="m 0,0 h -223.22 v 199.108 l 15.882,21.008 25.821,-17.455 37.306,-24.485 14.547,-45.991 21.197,-15.988 25.514,-37.016 32.083,-26.824 22.093,-28.569 29.674,-6.694 z"
             style="fill:#426481;fill-opacity:1;fill-rule:evenodd;stroke:none"
             id="path2893" />
        </g>
        <g
           id="g2895"
           transform="translate(407.5586,258.3555)">
          <path
             d="m 0,0 3.221,-8.27 3.222,-8.267 H 3.981 L 4.652,-18.005 9.307,-28.18 H 5.376 l 1.496,-2.362 6.873,-10.852 H 7.383 l 1.78,-2.811 9.164,-14.47 H 0 -18.327 l 9.163,14.47 1.781,2.811 h -6.362 l 6.872,10.852 1.497,2.362 h -3.931 l 4.655,10.175 0.669,1.468 h -2.46 l 3.22,8.267 z"
             style="fill:#425f78;fill-opacity:1;fill-rule:evenodd;stroke:none"
             id="path2897" />
        </g>
        <g
           id="g2899"
           transform="translate(423.1504,282.5273)">
          <path
             d="m 0,0 3.223,-8.267 3.22,-8.269 H 3.982 l 0.672,-1.467 4.653,-10.175 H 5.376 l 1.497,-2.363 6.872,-10.851 H 7.384 l 1.781,-2.811 9.163,-14.469 H 0 -18.327 l 9.163,14.469 1.781,2.811 h -6.362 l 6.873,10.851 1.497,2.363 h -3.931 l 4.654,10.175 0.67,1.467 h -2.461 l 3.222,8.269 z"
             style="fill:#425f78;fill-opacity:1;fill-rule:evenodd;stroke:none"
             id="path2901" />
        </g>
        <g
           id="g2903"
           transform="translate(439.2393,290.7852)">
          <path
             d="m 0,0 3.221,-8.268 3.222,-8.269 H 3.981 L 4.652,-18.005 9.307,-28.18 H 5.376 l 1.496,-2.362 6.873,-10.852 H 7.383 l 1.78,-2.811 9.164,-14.469 H 0 -18.327 l 9.164,14.469 1.778,2.811 h -6.36 l 6.872,10.852 1.497,2.362 h -3.931 l 4.653,10.175 0.671,1.468 h -2.46 l 3.22,8.269 z"
             style="fill:#425f78;fill-opacity:1;fill-rule:evenodd;stroke:none"
             id="path2905" />
        </g>
        <g
           id="g2907"
           transform="translate(457.2607,317.1289)">
          <path
             d="m 0,0 3.221,-8.268 3.222,-8.269 H 3.982 l 0.67,-1.468 4.655,-10.175 H 5.376 l 1.496,-2.362 6.873,-10.852 h -6.36 l 1.779,-2.811 9.163,-14.47 H 0 -18.327 l 9.164,14.47 1.78,2.811 h -6.362 l 6.874,10.852 1.495,2.362 h -3.931 l 4.655,10.175 0.671,1.468 h -2.462 l 3.222,8.269 z"
             style="fill:#425f78;fill-opacity:1;fill-rule:evenodd;stroke:none"
             id="path2909" />
        </g>
        <g
           id="g2911"
           transform="translate(476.4297,312.9854)">
          <path
             d="m 0,0 3.221,-8.27 3.22,-8.269 H 3.981 L 4.652,-18.006 9.307,-28.18 H 5.374 l 1.497,-2.362 6.874,-10.854 H 7.383 l 1.78,-2.809 9.163,-14.47 H 0 -18.327 l 9.163,14.47 1.779,2.809 h -6.362 l 6.873,10.854 1.498,2.362 h -3.932 l 4.654,10.174 0.671,1.467 h -2.46 l 3.22,8.269 z"
             style="fill:#425f78;fill-opacity:1;fill-rule:evenodd;stroke:none"
             id="path2913" />
        </g>
        <g
           id="g2915"
           transform="translate(494.5605,339.9229)">
          <path
             d="m 0,0 3.221,-8.27 3.221,-8.268 h -2.46 l 0.67,-1.469 4.653,-10.172 H 5.374 l 1.498,-2.363 6.873,-10.854 H 7.383 l 1.78,-2.809 9.164,-14.469 H 0 -18.328 l 9.163,14.469 1.78,2.809 h -6.362 l 6.874,10.854 1.497,2.363 h -3.931 l 4.653,10.172 0.671,1.469 h -2.462 l 3.222,8.268 z"
             style="fill:#425f78;fill-opacity:1;fill-rule:evenodd;stroke:none"
             id="path2917" />
        </g>
        <g
           id="g2919"
           transform="translate(466.4248,302.6592)">
          <path
             d="m 0,0 3.222,-8.267 3.221,-8.269 H 3.982 l 0.67,-1.468 4.655,-10.175 H 5.376 l 1.497,-2.364 6.872,-10.85 H 7.384 l 1.779,-2.812 9.163,-14.469 H 0 -18.327 l 9.163,14.469 1.781,2.812 h -6.362 l 6.873,10.85 1.496,2.364 h -3.932 l 4.655,10.175 0.672,1.468 h -2.463 l 3.222,8.269 z"
             style="fill:#425f78;fill-opacity:1;fill-rule:evenodd;stroke:none"
             id="path2921" />
        </g>
        <g
           id="g2923"
           transform="translate(512.6914,358.0542)">
          <path
             d="m 0,0 3.222,-8.27 3.22,-8.268 H 3.982 L 4.653,-18.006 9.306,-28.18 H 5.375 l 1.497,-2.363 6.874,-10.853 H 7.383 l 1.781,-2.809 9.163,-14.47 H 0 -18.328 l 9.165,14.47 1.779,2.809 h -6.362 l 6.873,10.853 1.497,2.363 h -3.931 l 4.653,10.174 0.672,1.468 h -2.461 l 3.221,8.268 z"
             style="fill:#425f78;fill-opacity:1;fill-rule:evenodd;stroke:none"
             id="path2925" />
        </g>
        <g
           id="g2927"
           transform="translate(530.3037,346.6582)">
          <path
             d="m 0,0 3.223,-8.27 3.22,-8.27 H 3.983 L 4.654,-18.007 9.307,-28.18 H 5.376 l 1.497,-2.364 6.872,-10.852 h -6.36 l 1.778,-2.811 9.165,-14.469 H 0 -18.327 l 9.164,14.469 1.78,2.811 h -6.362 l 6.873,10.852 1.496,2.364 h -3.929 l 4.653,10.173 0.671,1.467 h -2.462 l 3.222,8.27 z"
             style="fill:#425f78;fill-opacity:1;fill-rule:evenodd;stroke:none"
             id="path2929" />
        </g>
        <g
           id="g2931"
           transform="translate(538.5938,362.7153)">
          <path
             d="m 0,0 3.221,-8.268 3.22,-8.268 h -2.46 l 0.671,-1.469 4.655,-10.174 H 5.374 l 1.498,-2.363 6.873,-10.852 H 7.383 l 1.78,-2.812 9.164,-14.468 H 0 -18.327 l 9.163,14.468 1.779,2.812 h -6.362 l 6.874,10.852 1.497,2.363 h -3.931 l 4.653,10.174 0.671,1.469 h -2.46 l 3.22,8.268 z"
             style="fill:#425f78;fill-opacity:1;fill-rule:evenodd;stroke:none"
             id="path2933" />
        </g>
        <g
           id="g2935"
           transform="translate(556.6436,375.6494)">
          <path
             d="m 0,0 3.222,-8.27 3.222,-8.268 H 3.981 l 0.672,-1.469 4.655,-10.172 H 5.376 l 1.496,-2.364 6.873,-10.853 H 7.383 l 1.781,-2.809 9.163,-14.469 H 0 -18.326 l 9.163,14.469 1.781,2.809 h -6.363 l 6.872,10.853 1.497,2.364 h -3.931 l 4.654,10.172 0.671,1.469 h -2.461 l 3.221,8.268 z"
             style="fill:#425f78;fill-opacity:1;fill-rule:evenodd;stroke:none"
             id="path2937" />
        </g>
        <g
           id="g2939"
           transform="translate(565.8076,375.6494)">
          <path
             d="m 0,0 3.221,-8.27 3.222,-8.268 H 3.982 l 0.67,-1.469 4.655,-10.172 H 5.376 l 1.495,-2.364 6.874,-10.853 H 7.383 l 1.78,-2.809 9.164,-14.469 H 0 -18.327 l 9.163,14.469 1.781,2.809 h -6.362 l 6.871,10.853 1.498,2.364 h -3.931 l 4.653,10.172 0.671,1.469 h -2.46 l 3.222,8.268 z"
             style="fill:#425f78;fill-opacity:1;fill-rule:evenodd;stroke:none"
             id="path2941" />
        </g>
        <g
           id="g2943"
           transform="translate(573.8545,388.2661)">
          <path
             d="m 0,0 3.221,-8.268 3.222,-8.268 H 3.981 l 0.671,-1.469 4.655,-10.173 H 5.376 l 1.496,-2.364 6.873,-10.85 H 7.383 l 1.78,-2.813 9.164,-14.468 H 0 -18.327 l 9.164,14.468 1.78,2.813 h -6.362 l 6.872,10.85 1.497,2.364 h -3.931 l 4.653,10.173 0.671,1.469 h -2.46 l 3.22,8.268 z"
             style="fill:#425f78;fill-opacity:1;fill-rule:evenodd;stroke:none"
             id="path2945" />
        </g>
        <g
           id="g2947"
           transform="translate(585.6533,401.5508)">
          <path
             d="m 0,0 3.223,-8.27 3.22,-8.268 h -2.46 l 0.671,-1.468 4.654,-10.172 H 5.376 l 1.498,-2.364 6.871,-10.852 h -6.36 l 1.779,-2.811 9.163,-14.468 H 0 -18.326 l 9.163,14.468 1.78,2.811 h -6.362 l 6.874,10.852 1.495,2.364 h -3.931 l 4.655,10.172 0.671,1.468 h -2.462 l 3.222,8.268 z"
             style="fill:#425f78;fill-opacity:1;fill-rule:evenodd;stroke:none"
             id="path2949" />
        </g>
        <g
           id="g2951"
           transform="translate(600.6768,399.4785)">
          <path
             d="m 0,0 3.221,-8.268 3.222,-8.27 h -2.46 l 0.67,-1.467 4.654,-10.173 H 5.376 l 1.496,-2.364 6.873,-10.852 h -6.36 l 1.779,-2.811 9.163,-14.469 H 0 -18.326 l 9.163,14.469 1.78,2.811 h -6.362 l 6.874,10.852 1.495,2.364 h -3.931 l 4.655,10.173 0.67,1.467 h -2.461 l 3.222,8.27 z"
             style="fill:#425f78;fill-opacity:1;fill-rule:evenodd;stroke:none"
             id="path2953" />
        </g>
        <g
           id="g2955"
           transform="translate(610.8906,408.9878)">
          <path
             d="m 0,0 3.223,-8.268 3.22,-8.268 h -2.46 l 0.671,-1.469 4.654,-10.173 H 5.376 l 1.498,-2.365 6.872,-10.851 H 7.385 l 1.781,-2.811 9.163,-14.469 H 0 -18.326 l 9.163,14.469 1.781,2.811 h -6.363 l 6.874,10.851 1.495,2.365 h -3.929 l 4.653,10.173 0.672,1.469 h -2.463 l 3.222,8.268 z"
             style="fill:#425f78;fill-opacity:1;fill-rule:evenodd;stroke:none"
             id="path2957" />
        </g>
        <g
           id="g2959"
           transform="translate(625.542,425.9351)">
          <path
             d="m 0,0 3.223,-8.27 3.22,-8.268 H 3.982 L 4.654,-18.006 9.307,-28.18 H 5.376 l 1.497,-2.363 6.872,-10.853 H 7.384 l 1.781,-2.809 9.163,-14.47 H 0 -18.327 l 9.163,14.47 1.781,2.809 h -6.362 l 6.873,10.853 1.496,2.363 h -3.93 l 4.654,10.174 0.67,1.468 h -2.461 l 3.222,8.268 z"
             style="fill:#425f78;fill-opacity:1;fill-rule:evenodd;stroke:none"
             id="path2961" />
        </g>
        <g
           id="g2963"
           transform="translate(640.5654,424.8979)">
          <path
             d="m 0,0 3.223,-8.268 3.22,-8.27 H 3.982 L 4.654,-18.005 9.307,-28.18 H 5.376 l 1.497,-2.362 6.872,-10.852 H 7.384 l 1.779,-2.811 9.165,-14.47 H 0 -18.327 l 9.163,14.47 1.781,2.811 h -6.362 l 6.873,10.852 1.496,2.362 h -3.93 l 4.653,10.175 0.672,1.467 h -2.462 l 3.222,8.27 z"
             style="fill:#425f78;fill-opacity:1;fill-rule:evenodd;stroke:none"
             id="path2965" />
        </g>
        <g
           id="g2967"
           transform="translate(653.3018,412.2456)">
          <path
             d="m 0,0 3.221,-8.269 3.22,-8.27 h -2.46 l 0.671,-1.467 2.731,-5.97 V -28.18 H 5.374 l 1.498,-2.364 0.511,-0.806 v -10.045 -17.28 H 0 -18.328 l 9.163,14.47 1.781,2.81 h -6.363 l 6.874,10.851 1.497,2.364 h -3.931 l 4.653,10.174 0.671,1.467 h -2.46 l 3.22,8.27 z"
             style="fill:#425f78;fill-opacity:1;fill-rule:evenodd;stroke:none"
             id="path2969" />
        </g>
        <g
           id="g2971"
           transform="translate(643.0996,448.1372)">
          <path
             d="m 0,0 3.221,-8.27 3.222,-8.268 H 3.981 l 0.671,-1.468 4.655,-10.172 H 5.374 l 1.498,-2.364 6.873,-10.852 H 7.383 l 1.78,-2.811 8.422,-13.298 v -1.171 H 0 -18.327 l 9.164,14.469 1.778,2.811 h -6.36 l 6.872,10.852 1.497,2.364 h -3.931 l 4.653,10.172 0.671,1.468 h -2.46 l 3.22,8.268 z"
             style="fill:#425f78;fill-opacity:1;fill-rule:evenodd;stroke:none"
             id="path2973" />
        </g>
        <g
           id="g2975"
           transform="translate(656.8916,449.7964)">
          <path
             d="m 0,0 3.223,-8.268 0.57,-1.464 V -58.673 H 0 -18.326 l 9.163,14.468 1.781,2.811 h -6.363 l 6.874,10.851 1.497,2.365 h -3.931 l 4.653,10.173 0.671,1.469 h -2.462 l 3.222,8.268 z"
             style="fill:#425f78;fill-opacity:1;fill-rule:evenodd;stroke:none"
             id="path2977" />
        </g>
        <g
           id="g2979"
           transform="translate(511.6543,327.4883)">
          <path
             d="m 0,0 3.223,-8.267 3.22,-8.269 h -2.46 l 0.671,-1.467 4.654,-10.176 H 5.376 l 1.498,-2.364 6.872,-10.85 H 7.385 l 1.781,-2.812 9.163,-14.469 H 0 -18.326 l 9.163,14.469 1.781,2.812 h -6.363 l 6.874,10.85 1.495,2.364 h -3.929 l 4.653,10.176 0.672,1.467 h -2.463 l 3.222,8.269 z"
             style="fill:#425f78;fill-opacity:1;fill-rule:evenodd;stroke:none"
             id="path2981" />
        </g>
        <g
           id="g2983"
           transform="translate(501.1807,316.1104)">
          <path
             d="m 0,0 3.222,-8.268 3.221,-8.269 H 3.981 L 4.653,-18.005 9.308,-28.18 H 5.375 l 1.497,-2.364 6.873,-10.85 H 7.383 l 1.781,-2.813 9.163,-14.468 H 0 -18.328 l 9.165,14.468 1.779,2.813 h -6.362 l 6.873,10.85 1.497,2.364 h -3.931 l 4.653,10.175 0.671,1.468 h -2.46 l 3.221,8.269 z"
             style="fill:#425f78;fill-opacity:1;fill-rule:evenodd;stroke:none"
             id="path2985" />
        </g>
        <g
           id="g2987"
           transform="translate(486.1572,308.8574)">
          <path
             d="m 0,0 3.223,-8.268 3.221,-8.268 H 3.983 l 0.671,-1.469 4.654,-10.173 H 5.376 l 1.498,-2.364 6.871,-10.851 h -6.36 l 1.779,-2.812 9.165,-14.469 H 0 -18.326 l 9.163,14.469 1.781,2.812 h -6.363 l 6.874,10.851 1.495,2.364 h -3.929 l 4.653,10.173 0.671,1.469 h -2.462 l 3.222,8.268 z"
             style="fill:#425f78;fill-opacity:1;fill-rule:evenodd;stroke:none"
             id="path2989" />
        </g>
        <g
           id="g2991"
           transform="translate(413.5029,199.6807)">
          <path
             d="m 0,0 h 247.182 v 208.987 l -42.92,-30.222 -5.334,-8.114 -46.623,-24.021 1.035,-2.398 L 138.56,124.529 103.422,108.455 52.187,66.611 25.736,61.767 16.573,32.431 -5.944,29.338 Z"
             style="fill:#3e5c78;fill-opacity:1;fill-rule:evenodd;stroke:none"
             id="path2993" />
        </g>
        <g
           id="g2995"
           transform="translate(653.376,400.3604)">
          <path
             d="m 0,0 -3.434,-8.813 -3.432,-8.812 h 2.623 l -0.716,-1.565 -4.96,-10.843 h 4.19 l -1.594,-2.52 -7.326,-11.564 h 6.781 l -1.898,-2.995 -9.766,-15.422 H 0 7.309 v 30.009 l -1.579,2.492 h 1.579 v 5.71 l -2.349,5.133 -0.716,1.565 h 2.623 l -3.433,8.812 z"
             style="fill:#344556;fill-opacity:1;fill-rule:evenodd;stroke:none"
             id="path2997" />
        </g>
        <g
           id="g2999"
           transform="translate(641.0811,411.1294)">
          <path
             d="m 0,0 -3.435,-8.813 -3.431,-8.813 h 2.622 l -0.715,-1.563 -4.96,-10.843 h 4.19 l -1.596,-2.521 -7.324,-11.565 h 6.779 l -1.897,-2.994 -9.765,-15.422 H 0 19.532 l -9.766,15.422 -1.898,2.994 h 6.781 l -7.324,11.565 -1.596,2.521 h 4.19 l -4.959,10.843 -0.716,1.563 h 2.623 l -3.433,8.813 z"
             style="fill:#344556;fill-opacity:1;fill-rule:evenodd;stroke:none"
             id="path3001" />
        </g>
        <g
           id="g3003"
           transform="translate(627.2969,386.0371)">
          <path
             d="m 0,0 -3.435,-8.813 -3.433,-8.812 h 2.624 L -4.961,-19.19 -9.92,-30.034 h 4.191 l -1.596,-2.519 -7.325,-11.565 h 6.78 l -1.899,-2.996 -9.765,-15.421 H 0 19.531 l -9.765,15.421 -1.897,2.996 h 6.778 l -7.323,11.565 -1.595,2.519 h 4.189 l -4.96,10.844 -0.715,1.565 h 2.622 l -3.433,8.812 z"
             style="fill:#344556;fill-opacity:1;fill-rule:evenodd;stroke:none"
             id="path3005" />
        </g>
        <g
           id="g3007"
           transform="translate(611.1777,384.1719)">
          <path
             d="m 0,0 -3.434,-8.813 -3.433,-8.813 h 2.623 l -0.715,-1.563 -4.96,-10.843 h 4.189 l -1.595,-2.519 -7.324,-11.566 h 6.779 l -1.898,-2.995 -9.764,-15.42 H 0 19.532 l -9.766,15.42 -1.898,2.995 h 6.781 l -7.326,11.566 -1.592,2.519 h 4.188 l -4.96,10.843 -0.715,1.563 h 2.622 l -3.432,8.813 z"
             style="fill:#344556;fill-opacity:1;fill-rule:evenodd;stroke:none"
             id="path3009" />
        </g>
        <g
           id="g3011"
           transform="translate(591.375,378.7554)">
          <path
             d="m 0,0 -3.433,-8.813 -3.433,-8.813 h 2.624 l -0.717,-1.565 -4.958,-10.842 h 4.188 l -1.594,-2.52 -7.325,-11.564 h 6.78 l -1.898,-2.995 -9.764,-15.424 H 0 19.534 l -9.766,15.424 -1.898,2.995 h 6.781 l -7.325,11.564 -1.596,2.52 h 4.189 l -4.957,10.842 -0.717,1.565 h 2.622 l -3.433,8.813 z"
             style="fill:#344556;fill-opacity:1;fill-rule:evenodd;stroke:none"
             id="path3013" />
        </g>
        <g
           id="g3015"
           transform="translate(575.8613,354.2886)">
          <path
             d="m 0,0 -3.434,-8.811 -3.433,-8.813 h 2.623 l -0.716,-1.565 -4.959,-10.843 h 4.189 l -1.595,-2.519 -7.325,-11.565 h 6.78 l -1.897,-2.996 -9.766,-15.422 H 0 19.532 l -9.766,15.422 -1.898,2.996 h 6.78 l -7.325,11.565 -1.594,2.519 h 4.19 l -4.96,10.843 -0.715,1.565 h 2.622 l -3.432,8.813 z"
             style="fill:#344556;fill-opacity:1;fill-rule:evenodd;stroke:none"
             id="path3017" />
        </g>
        <g
           id="g3019"
           transform="translate(564.5225,326.9336)">
          <path
             d="m 0,0 -3.434,-8.814 -3.432,-8.812 h 2.623 l -0.717,-1.563 -4.959,-10.843 h 4.19 l -1.594,-2.52 -7.326,-11.566 h 6.781 l -1.898,-2.996 -9.765,-15.42 H 0 19.534 l -9.767,15.42 -1.897,2.996 h 6.78 l -7.325,11.566 -1.595,2.52 h 4.189 l -4.958,10.843 -0.717,1.563 h 2.622 l -3.432,8.812 z"
             style="fill:#344556;fill-opacity:1;fill-rule:evenodd;stroke:none"
             id="path3021" />
        </g>
        <g
           id="g3023"
           transform="translate(553.8096,310.0146)">
          <path
             d="m 0,0 -3.434,-8.813 -3.434,-8.813 h 2.623 l -0.715,-1.562 -4.961,-10.845 h 4.191 l -1.595,-2.518 -7.326,-11.566 h 6.781 l -1.898,-2.995 -9.765,-15.422 H 0 19.532 l -9.767,15.422 -1.897,2.995 h 6.78 l -7.325,11.566 -1.594,2.518 h 4.188 l -4.958,10.845 -0.717,1.562 h 2.624 l -3.433,8.813 z"
             style="fill:#344556;fill-opacity:1;fill-rule:evenodd;stroke:none"
             id="path3025" />
        </g>
        <g
           id="g3027"
           transform="translate(538.2666,304.8545)">
          <path
             d="m 0,0 -3.434,-8.813 -3.433,-8.813 h 2.624 l -0.717,-1.563 -4.959,-10.844 h 4.19 l -1.595,-2.518 -7.325,-11.566 h 6.779 l -1.898,-2.995 -9.764,-15.422 H 0 19.532 l -9.765,15.422 -1.897,2.995 h 6.779 l -7.324,11.566 -1.596,2.518 h 4.19 l -4.96,10.844 -0.715,1.563 h 2.622 l -3.432,8.813 z"
             style="fill:#344556;fill-opacity:1;fill-rule:evenodd;stroke:none"
             id="path3029" />
        </g>
        <g
           id="g3031"
           transform="translate(524.6514,282.7285)">
          <path
             d="m 0,0 -3.434,-8.813 -3.433,-8.813 h 2.622 l -0.715,-1.562 -4.959,-10.844 h 4.191 l -1.597,-2.52 -7.324,-11.566 h 6.779 l -1.898,-2.994 -9.765,-15.422 H 0 19.532 l -9.766,15.422 -1.898,2.994 h 6.78 l -7.323,11.566 -1.596,2.52 h 4.19 l -4.96,10.844 -0.715,1.562 h 2.622 l -3.432,8.813 z"
             style="fill:#344556;fill-opacity:1;fill-rule:evenodd;stroke:none"
             id="path3033" />
        </g>
        <g
           id="g3035"
           transform="translate(513.668,262.2139)">
          <path
             d="m 0,0 -3.434,-8.811 -3.432,-8.814 h 2.622 l -0.715,-1.564 -4.96,-10.842 h 4.19 l -1.596,-2.52 -7.324,-11.564 h 6.779 l -1.897,-2.997 -9.765,-15.421 H 0 19.533 l -9.767,15.421 -1.898,2.997 h 6.781 l -7.324,11.564 -1.595,2.52 h 4.189 l -4.959,10.842 -0.715,1.564 h 2.622 l -3.433,8.814 z"
             style="fill:#344556;fill-opacity:1;fill-rule:evenodd;stroke:none"
             id="path3037" />
        </g>
        <g
           id="g3039"
           transform="translate(660.6846,199.6807)">
          <path
             d="M 0,0 V 168.154 L -33.388,155.088 -54.658,134.957 -79.075,116.539 -101.146,80.301 -132.184,42.64 -151.662,0 Z"
             style="fill:#344556;fill-opacity:1;fill-rule:evenodd;stroke:none"
             id="path3041" />
        </g>
        <g
           id="g3043"
           transform="translate(145.3721,293.7344)">
          <path
             d="m 0,0 -3.72,-9.548 -3.72,-9.548 h 2.843 l -0.777,-1.696 -5.372,-11.747 h 4.539 l -1.729,-2.729 -7.936,-12.532 h 7.346 l -2.056,-3.244 -10.582,-16.708 H 0 21.163 L 10.582,-51.044 8.526,-47.8 h 7.345 l -7.935,12.532 -1.729,2.729 h 4.538 l -5.372,11.747 -0.776,1.696 H 7.44 l -3.72,9.548 z"
             style="fill:#384d61;fill-opacity:1;fill-rule:evenodd;stroke:none"
             id="path3045" />
        </g>
        <g
           id="g3047"
           transform="translate(127.3672,321.6465)">
          <path
             d="m 0,0 -3.72,-9.548 -3.72,-9.548 h 2.841 l -0.776,-1.693 -5.372,-11.75 h 4.539 l -1.729,-2.729 -7.936,-12.529 h 7.347 l -2.056,-3.248 -10.582,-16.706 H 0 21.162 l -10.581,16.706 -2.055,3.248 h 7.346 l -7.937,12.529 -1.728,2.729 h 4.54 l -5.373,11.75 -0.775,1.693 H 7.438 L 3.72,-9.548 Z"
             style="fill:#384d61;fill-opacity:1;fill-rule:evenodd;stroke:none"
             id="path3049" />
        </g>
        <g
           id="g3051"
           transform="translate(108.7896,331.1812)">
          <path
             d="m 0,0 -3.72,-9.548 -3.72,-9.548 h 2.842 l -0.775,-1.696 -5.373,-11.748 h 4.539 l -1.73,-2.728 -7.935,-12.53 h 7.346 l -2.056,-3.246 -10.581,-16.709 H 0 21.162 l -10.579,16.709 -2.057,3.246 h 7.345 l -7.934,12.53 -1.729,2.728 h 4.538 l -5.372,11.748 -0.776,1.696 H 7.44 l -3.72,9.548 z"
             style="fill:#384d61;fill-opacity:1;fill-rule:evenodd;stroke:none"
             id="path3053" />
        </g>
        <g
           id="g3055"
           transform="translate(87.979,361.6006)">
          <path
             d="m 0,0 -3.72,-9.55 -3.72,-9.546 h 2.842 l -0.776,-1.694 -5.372,-11.748 h 4.538 l -1.728,-2.73 -7.936,-12.531 h 7.347 l -2.057,-3.246 -10.581,-16.708 H 0 21.163 l -10.582,16.708 -2.055,3.246 h 7.347 l -7.937,12.531 -1.728,2.73 h 4.538 L 5.373,-20.79 4.598,-19.096 H 7.44 L 3.72,-9.55 Z"
             style="fill:#384d61;fill-opacity:1;fill-rule:evenodd;stroke:none"
             id="path3057" />
        </g>
        <g
           id="g3059"
           transform="translate(65.8462,356.8164)">
          <path
             d="m 0,0 -3.72,-9.55 -3.72,-9.548 h 2.842 l -0.776,-1.694 -5.372,-11.747 h 4.539 l -1.73,-2.731 -7.935,-12.53 h 7.346 l -2.056,-3.245 -10.581,-16.708 H 0 21.162 l -10.58,16.708 -2.056,3.245 h 7.346 l -7.936,12.53 -1.729,2.731 h 4.539 l -5.373,11.747 -0.775,1.694 H 7.44 L 3.72,-9.55 Z"
             style="fill:#384d61;fill-opacity:1;fill-rule:evenodd;stroke:none"
             id="path3061" />
        </g>
        <g
           id="g3063"
           transform="translate(44.9097,387.9204)">
          <path
             d="m 0,0 -3.719,-9.548 -3.721,-9.548 h 2.842 l -0.776,-1.694 -5.372,-11.748 h 4.538 l -1.728,-2.73 -7.936,-12.53 h 7.347 l -2.056,-3.245 -10.582,-16.707 H 0 21.162 l -10.581,16.707 -2.055,3.245 h 7.346 l -7.936,12.53 -1.728,2.73 h 4.539 L 5.374,-20.79 4.599,-19.096 H 7.44 l -3.72,9.548 z"
             style="fill:#384d61;fill-opacity:1;fill-rule:evenodd;stroke:none"
             id="path3065" />
        </g>
        <g
           id="g3067"
           transform="translate(77.3975,344.8926)">
          <path
             d="m 0,0 -3.719,-9.548 -3.72,-9.548 h 2.841 l -0.776,-1.695 -5.372,-11.746 h 4.539 l -1.729,-2.731 -7.936,-12.531 h 7.346 l -2.055,-3.246 -10.582,-16.706 H 0 21.163 l -10.581,16.706 -2.055,3.246 h 7.345 l -7.935,12.531 -1.729,2.731 h 4.539 l -5.374,11.746 -0.774,1.695 H 7.44 l -3.72,9.548 z"
             style="fill:#384d61;fill-opacity:1;fill-rule:evenodd;stroke:none"
             id="path3069" />
        </g>
        <g
           id="g3071"
           transform="translate(23.9731,408.856)">
          <path
             d="m 0,0 -3.719,-9.548 -3.721,-9.548 h 2.842 l -0.776,-1.693 -5.372,-11.748 h 4.538 l -1.729,-2.731 -7.935,-12.529 h 7.347 l -2.056,-3.247 -10.582,-16.709 H 0 21.163 l -10.581,16.709 -2.055,3.247 h 7.345 l -7.936,12.529 -1.728,2.731 h 4.538 l -5.372,11.748 -0.776,1.693 H 7.44 l -3.72,9.548 z"
             style="fill:#384d61;fill-opacity:1;fill-rule:evenodd;stroke:none"
             id="path3073" />
        </g>
        <g
           id="g3075"
           transform="translate(3.6343,395.6963)">
          <path
             d="M 0,0 -1.912,-4.909 V -67.751 H 0 21.164 l -10.581,16.706 -2.056,3.248 h 7.345 l -7.935,12.529 -1.729,2.73 h 4.539 l -5.373,11.748 -0.775,1.694 h 2.842 l -3.72,9.548 z"
             style="fill:#384d61;fill-opacity:1;fill-rule:evenodd;stroke:none"
             id="path3077" />
        </g>
        <g
           id="g3079"
           transform="translate(1.7222,381.7031)">
          <path
             d="M 0,0 H 3.087 L 0,6.749 Z M 0,-35.215 H 13.504 L 2.923,-18.507 0.868,-15.261 H 8.213 L 0.278,-2.732 0,-2.293 Z"
             style="fill:#384d61;fill-opacity:1;fill-rule:evenodd;stroke:none"
             id="path3081" />
        </g>
        <g
           id="g3083"
           transform="translate(25.1694,373.5635)">
          <path
             d="m 0,0 -3.72,-9.548 -3.721,-9.546 h 2.842 l -0.775,-1.697 -5.373,-11.747 h 4.539 l -1.729,-2.73 -7.936,-12.531 h 7.347 l -2.057,-3.244 -10.58,-16.708 H 0 21.162 l -10.58,16.708 -2.056,3.244 h 7.345 l -7.935,12.531 -1.728,2.73 h 4.538 l -5.373,11.747 -0.775,1.697 H 7.439 L 3.72,-9.548 Z"
             style="fill:#384d61;fill-opacity:1;fill-rule:evenodd;stroke:none"
             id="path3085" />
        </g>
        <g
           id="g3087"
           transform="translate(37.2646,360.4253)">
          <path
             d="m 0,0 -3.719,-9.548 -3.721,-9.548 h 2.842 l -0.776,-1.697 -5.373,-11.747 h 4.539 l -1.728,-2.729 -7.936,-12.531 h 7.346 l -2.056,-3.244 -10.581,-16.709 H 0 21.163 L 10.582,-51.044 8.526,-47.8 h 7.346 l -7.936,12.531 -1.728,2.729 h 4.538 l -5.372,11.747 -0.776,1.697 H 7.44 l -3.72,9.548 z"
             style="fill:#384d61;fill-opacity:1;fill-rule:evenodd;stroke:none"
             id="path3089" />
        </g>
        <g
           id="g3091"
           transform="translate(54.6108,352.0508)">
          <path
             d="m 0,0 -3.72,-9.548 -3.72,-9.548 h 2.842 l -0.776,-1.696 -5.372,-11.747 h 4.539 l -1.729,-2.729 -7.935,-12.532 h 7.345 l -2.055,-3.245 -10.581,-16.708 H 0 21.164 L 10.583,-51.045 8.527,-47.8 h 7.346 l -7.937,12.532 -1.728,2.729 h 4.538 l -5.372,11.747 -0.776,1.696 H 7.44 l -3.719,9.548 z"
             style="fill:#384d61;fill-opacity:1;fill-rule:evenodd;stroke:none"
             id="path3093" />
        </g>
        <g
           id="g3095"
           transform="translate(1.7222,225.9824)">
          <path
             d="M 0,0 V 120.505 L 42.52,116.534 79.996,83.034 107.067,71.322 117.65,37.446 146.807,27.913 143.65,0 Z"
             style="fill:#384d61;fill-opacity:1;fill-rule:evenodd;stroke:none"
             id="path3097" />
        </g>
        <g
           id="g3099"
           transform="translate(300.1958,387.605)">
          <path
             d="m 0,0 29.389,-35.783 37.3,-16.579 4.142,-40.405 22.795,-37.184 H -47.279 l 8.288,49.615 -27.974,47.661 12.433,42.478 -2.073,32.119 z"
             style="fill:#4b8ba4;fill-opacity:1;fill-rule:evenodd;stroke:none"
             id="path3101" />
        </g>
        <g
           id="g3103"
           transform="translate(1.7222,117.5791)">
          <path
             d="M 0,0 V 2.186 L 263.118,14.604 0,17.402 v 6.213 L 195.619,26.962 47.614,39.47 564.085,39.028 253.793,28.072 642.273,14.391 Z m 0,-43.638 v 14.075 l 494.163,-6.601 z m 658.962,-20.526 v -14.32 l -514.992,0.877 z"
             style="fill:#6c9fb0;fill-opacity:1;fill-rule:evenodd;stroke:none"
             id="path3105" />
        </g>
        <g
           id="g3107"
           transform="translate(660.6846,53.415)">
          <path
             d="m 0,0 v -14.32 l -514.992,0.877 z m -658.962,64.164 v 2.186 l 263.118,12.418 -263.118,2.798 v 6.213 l 195.618,3.347 -148.005,12.508 516.472,-0.442 L -405.169,92.236 -16.69,78.555 Z m 0,-43.638 V 34.601 L -164.8,28 Z"
             style="fill:#6c9fb0;fill-opacity:1;fill-rule:evenodd;stroke:none"
             id="path3109" />
        </g>
        <g
           id="g3111"
           transform="translate(9.4243,74.0596)">
          <path
             d="M 0,0 1.623,2.529 4.604,7.18 H 2.326 L 2.948,8.006 7.253,13.73 H 3.616 l 0.079,0.074 -10.248,0.138 0.222,-0.212 H -7.702 V 10.718 L -5.664,8.006 -5.042,7.18 h -2.277 l 2.981,-4.651 1.648,-2.57 z"
             style="fill:#6c9fb0;fill-opacity:1;fill-rule:evenodd;stroke:none"
             id="path3113" />
        </g>
        <g
           id="g3115"
           transform="translate(23.8818,74.2783)">
          <path
             d="m 0,0 0.821,1.278 h -2.277 l 0.621,0.826 4.305,5.724 h -3.637 l 1.385,1.329 4.387,4.209 -21.794,0.293 4.69,-4.502 1.385,-1.329 h -3.637 l 4.305,-5.724 0.621,-0.826 h -2.277 l 0.919,-1.433 z"
             style="fill:#6c9fb0;fill-opacity:1;fill-rule:evenodd;stroke:none"
             id="path3117" />
        </g>
        <g
           id="g3119"
           transform="translate(30.7075,79.499)">
          <path
             d="M 0,0 2.982,4.651 5.167,8.061 -5.255,8.199 -2.98,4.651 Z"
             style="fill:#6c9fb0;fill-opacity:1;fill-rule:evenodd;stroke:none"
             id="path3121" />
        </g>
        <g
           id="g3123"
           transform="translate(44.7007,80.4805)">
          <path
             d="M 0,0 2.981,4.651 4.423,6.904 -4.499,7.022 -2.981,4.651 Z"
             style="fill:#6c9fb0;fill-opacity:1;fill-rule:evenodd;stroke:none"
             id="path3125" />
        </g>
        <g
           id="g3127"
           transform="translate(61.8906,83.3408)">
          <path
             d="M 0,0 2.461,3.838 -2.502,3.905 Z"
             style="fill:#6c9fb0;fill-opacity:1;fill-rule:evenodd;stroke:none"
             id="path3129" />
        </g>
        <g
           id="g3131"
           transform="translate(88.0557,119.5146)">
          <path
             d="m 0,0 0.022,0.021 h -5.886 l 1.647,1.582 2.764,2.653 -21.433,-1.012 1.712,-1.641 1.647,-1.582 h -5.886 l 0.601,-0.578 z"
             style="fill:#6c9fb0;fill-opacity:1;fill-rule:evenodd;stroke:none"
             id="path3133" />
        </g>
        <g
           id="g3135"
           transform="translate(92.084,134.0205)">
          <path
             d="m 0,0 1.597,1.533 7.652,7.345 -31.696,-0.543 7.087,-6.802 1.443,-1.385 z m 5.821,-0.062 0.015,0.015 H 4.503 Z m -7.007,-14.381 0.266,0.415 h -2.277 l 0.62,0.824 2.412,3.204 -12.972,-0.612 1.949,-2.592 0.622,-0.824 h -2.277 l 0.427,-0.666 z"
             style="fill:#6c9fb0;fill-opacity:1;fill-rule:evenodd;stroke:none"
             id="path3137" />
        </g>
        <g
           id="g3139"
           transform="translate(110.6743,151.8652)">
          <path
             d="m 0,0 0.787,0.755 h -9.726 z m -8.728,-17.949 1.169,1.551 h -3.637 l 1.384,1.331 6.359,6.102 h -5.728 l -19.362,-0.33 6.014,-5.772 1.385,-1.331 h -3.637 l 1.048,-1.391 z m -7.416,-14.256 2.955,4.608 0.009,0.015 -5.805,-0.273 2.79,-4.352 z"
             style="fill:#6c9fb0;fill-opacity:1;fill-rule:evenodd;stroke:none"
             id="path3141" />
        </g>
        <g
           id="g3143"
           transform="translate(120.4683,151.0371)">
          <path
             d="m 0,0 4.484,4.307 h -16.956 -16.957 l 2.079,-1.995 z m -7.169,-17.242 3.307,4.395 h -3.637 l 1.385,1.331 3.82,3.666 -20,-0.342 3.463,-3.324 1.385,-1.331 h -3.637 l 3.223,-4.281 z m -5.303,-11.452 1.611,2.512 -3.128,-0.146 z"
             style="fill:#6c9fb0;fill-opacity:1;fill-rule:evenodd;stroke:none"
             id="path3145" />
        </g>
        <g
           id="g3147"
           transform="translate(125.5591,150.6074)">
          <path
             d="m 0,0 0.616,0.59 6.022,5.78 -24.784,0.021 5.55,-5.327 z m -5.743,-16.589 2.981,4.651 2.978,4.648 -11.788,-0.203 2.849,-4.445 z"
             style="fill:#6c9fb0;fill-opacity:1;fill-rule:evenodd;stroke:none"
             id="path3149" />
        </g>
        <g
           id="g3151"
           transform="translate(132.6602,150.0068)">
          <path
             d="M 0,0 2.651,4.14 H 0.375 l 0.62,0.825 1.508,2.003 -11.632,0.01 1.514,-2.013 0.62,-0.825 h -2.276 l 2.273,-3.548 z"
             style="fill:#6c9fb0;fill-opacity:1;fill-rule:evenodd;stroke:none"
             id="path3153" />
        </g>
        <g
           id="g3155"
           transform="translate(145.8135,151.3643)">
          <path
             d="M 0,0 2.981,4.65 3.589,5.599 -3.592,5.605 -2.981,4.65 Z"
             style="fill:#6c9fb0;fill-opacity:1;fill-rule:evenodd;stroke:none"
             id="path3157" />
        </g>
        <g
           id="g3159"
           transform="translate(109.166,151.9932)">
          <path
             d="m 0,0 7.309,3.351 1.865,1.645 -69.004,0.06 z m -107.444,-32.229 v -2.185 l 79.896,1.791 2.222,4.269 z m 0,21.43 v -6.213 l 87.534,-0.93 4.536,8.717 z"
             style="fill:#6c9fb0;fill-opacity:1;fill-rule:evenodd;stroke:none"
             id="path3161" />
        </g>
        <g
           id="g3163"
           transform="translate(457.2607,156.5518)">
          <path
             d="M 0,0 0.159,0.147 H -0.158 Z"
             style="fill:#6c9fb0;fill-opacity:1;fill-rule:evenodd;stroke:none"
             id="path3165" />
        </g>
        <g
           id="g3167"
           transform="translate(499.1367,154.2529)">
          <path
             d="M 0,0 H -0.595 L 0.076,0.539 2.405,2.409 -11.574,2.422 -9.23,0.539 -8.56,0 h -2.46 l 0.399,-0.374 z"
             style="fill:#6c9fb0;fill-opacity:1;fill-rule:evenodd;stroke:none"
             id="path3169" />
        </g>
        <g
           id="g3171"
           transform="translate(523.6719,155.1191)">
          <path
             d="M 0,0 2.622,1.521 -24.624,1.545 -20.7,-0.729 Z"
             style="fill:#6c9fb0;fill-opacity:1;fill-rule:evenodd;stroke:none"
             id="path3173" />
        </g>
        <g
           id="g3175"
           transform="translate(539.125,155.6641)">
          <path
             d="m 0,0 0.485,0.392 h -3.93 l 0.995,0.576 -12.761,0.011 1.014,-0.587 h -3.929 l 1.228,-0.987 z"
             style="fill:#6c9fb0;fill-opacity:1;fill-rule:evenodd;stroke:none"
             id="path3177" />
        </g>
        <g
           id="g3179"
           transform="translate(547.6221,155.9648)">
          <path
             d="m 0,0 0.135,0.079 0.997,0.578 -20.353,0.017 1.028,-0.595 1.172,-0.679 z"
             style="fill:#6c9fb0;fill-opacity:1;fill-rule:evenodd;stroke:none"
             id="path3181" />
        </g>
        <g
           id="g3183"
           transform="translate(565.8076,156.6074)">
          <path
             d="M 0,0 H -9.164 -27.49 l 1.576,-0.914 z"
             style="fill:#6c9fb0;fill-opacity:1;fill-rule:evenodd;stroke:none"
             id="path3185" />
        </g>
        <g
           id="g3187"
           transform="translate(565.8076,156.6074)">
          <path
             d="m 0,0 h -18.327 l 1.053,-0.611 z"
             style="fill:#6c9fb0;fill-opacity:1;fill-rule:evenodd;stroke:none"
             id="path3189" />
        </g>
        <g
           id="g3191"
           transform="translate(573.8545,130.4268)">
          <path
             d="m 0,0 3.221,3.035 0.883,0.833 -8.527,0.301 1.2,-1.134 z"
             style="fill:#6c9fb0;fill-opacity:1;fill-rule:evenodd;stroke:none"
             id="path3193" />
        </g>
        <g
           id="g3195"
           transform="translate(591.2119,130.7881)">
          <path
             d="m 0,0 0.885,0.833 h -2.46 l 0.671,0.539 2.029,1.629 -13.978,0.493 2.642,-2.122 0.671,-0.539 h -2.462 l 1.144,-1.078 z"
             style="fill:#6c9fb0;fill-opacity:1;fill-rule:evenodd;stroke:none"
             id="path3197" />
        </g>
        <g
           id="g3199"
           transform="translate(605.7744,131.1133)">
          <path
             d="m 0,0 1.346,1.27 h -2.46 L -0.443,1.808 0.046,2.2 -10.713,2.58 -9.75,1.808 -9.079,1.27 h -2.462 l 1.584,-1.493 z"
             style="fill:#6c9fb0;fill-opacity:1;fill-rule:evenodd;stroke:none"
             id="path3201" />
        </g>
        <g
           id="g3203"
           transform="translate(617.9834,131.3867)">
          <path
             d="m 0,0 1.788,1.436 -14.548,0.513 0.291,-0.171 h -3.929 l 2.599,-2.087 z"
             style="fill:#6c9fb0;fill-opacity:1;fill-rule:evenodd;stroke:none"
             id="path3205" />
        </g>
        <g
           id="g3207"
           transform="translate(636.1943,131.7949)">
          <path
             d="m 0,0 h -3.268 l 0.917,0.532 -17.675,0.622 0.21,-0.123 L -18.035,0 h -6.362 l 0.908,-0.526 z"
             style="fill:#6c9fb0;fill-opacity:1;fill-rule:evenodd;stroke:none"
             id="path3209" />
        </g>
        <g
           id="g3211"
           transform="translate(632.8623,132.3613)">
          <path
             d="m 0,0 0.32,-0.186 h -6.362 l 0.981,-0.568 16.194,0.362 z"
             style="fill:#6c9fb0;fill-opacity:1;fill-rule:evenodd;stroke:none"
             id="path3213" />
        </g>
        <g
           id="g3215"
           transform="translate(513.8027,154.7705)">
          <path
             d="m 0,0 1.074,1.012 0.919,0.867 -8.289,0.008 0.927,-0.875 1.227,-1.156 z"
             style="fill:#6c9fb0;fill-opacity:1;fill-rule:evenodd;stroke:none"
             id="path3217" />
        </g>
        <g
           id="g3219"
           transform="translate(541.3809,155.7451)">
          <path
             d="M 0,0 -5.285,0.887 24.427,0.862 Z m 85.818,-24.151 -4.332,1.12 21.128,-0.744 z"
             style="fill:#6c9fb0;fill-opacity:1;fill-rule:evenodd;stroke:none"
             id="path3221" />
        </g>
        <g
           id="g3223"
           transform="translate(70.4429,155.2646)">
          <path
             d="m 0,0 -0.808,1.768 -20.299,0.016 z m -68.721,-67.249 v -14.074 l 95.146,1.439 -7.259,11.461 z m 0,31.749 v -2.186 l 67.464,1.513 -2.372,3.745 z m 0,21.43 v -6.213 l 57.79,-0.613 -1.211,1.91 H 8.684 l -2.832,6.192 z"
             style="fill:#6c9fb0;fill-opacity:1;fill-rule:evenodd;stroke:none"
             id="path3225" />
        </g>
        <g
           id="g3227"
           transform="translate(190.9058,39.8945)">
          <path
             d="m 0,0 -0.784,1.237 -44.429,-1.16 z m -133.554,47.379 -7.986,-12.61 162.902,2.461 -5.16,8.149 z m 22.923,36.197 -2.654,-4.19 106.44,2.385 -3.912,6.178 -0.211,0.332 z m 12.212,19.277 -5.495,-8.673 89.816,-0.956 -6.936,10.953 z m -20.923,14.281 -0.819,-1.789 126.596,-10.699 -5.666,12.387 z"
             style="fill:#6c9fb0;fill-opacity:1;fill-rule:evenodd;stroke:none"
             id="path3229" />
        </g>
        <g
           id="g3231"
           transform="translate(599.4307,51.8164)">
          <path
             d="m 0,0 -7.982,-12.604 69.236,-0.118 V 1.599 Z m 17.654,81.102 -0.997,-1.575 27.907,0.626 z"
             style="fill:#6c9fb0;fill-opacity:1;fill-rule:evenodd;stroke:none"
             id="path3233" />
        </g>
        <g
           id="g3235"
           transform="translate(427.0322,47.3174)">
          <path
             d="m 0,0 -4.949,-7.814 192.141,-0.328 -8.114,12.817 z m 21.991,34.725 -0.853,-1.349 47.715,0.722 z m 6.727,56.558 -3.444,-7.528 h 27.772 l -1.784,-2.816 78.405,1.757 -0.669,1.059 h 27.765 l -1.403,3.066 z m 8.276,18.094 -1.712,-3.741 103.493,3.654 z"
             style="fill:#6c9fb0;fill-opacity:1;fill-rule:evenodd;stroke:none"
             id="path3237" />
        </g>
        <g
           id="g3239"
           transform="translate(373.2939,45.915)">
          <path
             d="M 0,0 -2.892,-6.324 81.758,-6.469 77.871,2.03 Z M 16.884,36.913 15.497,33.881 62.974,34.6 62.193,36.306 Z M 26.979,94.638 22.791,83.885 21.46,80.47 l 35.573,0.798 -1.02,2.617 -3.845,9.866 z m 6.307,16.19 -2.274,-5.838 16.55,0.584 -2.043,5.242 z"
             style="fill:#6c9fb0;fill-opacity:1;fill-rule:evenodd;stroke:none"
             id="path3241" />
        </g>
        <g
           id="g3243"
           transform="translate(29.8154,285.585)">
          <path
             d="M 0,0 -17.068,-43.814 -28.093,-72.11 v -15.513 h 6.995 l -3.557,-7.78 -3.438,-7.516 V -284.547 H 80.426 l -31.868,50.32 -9.434,14.897 H 72.83 l -36.413,57.499 -7.931,12.524 h 20.826 l -24.655,53.904 -3.558,7.78 h 13.04 l -17.067,43.809 z"
             style="fill:#192026;fill-opacity:1;fill-rule:evenodd;stroke:none"
             id="path3245" />
        </g>
        <g
           id="g3247"
           transform="translate(131.5947,343.606)">
          <path
             d="m 0,0 -22.756,-58.416 -22.759,-58.409 h 17.386 l -4.743,-10.374 -32.871,-71.866 h 27.771 l -10.579,-16.697 -48.548,-76.661 h 44.939 l -12.573,-19.862 -19.18,-30.283 h 167.83 l -19.178,30.283 -12.578,19.862 h 44.941 l -48.548,76.661 -10.575,16.697 h 27.767 l -32.873,71.866 -4.742,10.374 h 17.386 l -22.755,58.409 z"
             style="fill:#2b3c4b;fill-opacity:1;fill-rule:evenodd;stroke:none"
             id="path3249" />
        </g>
        <g
           id="g3251"
           transform="translate(648.3506,286.6221)">
          <path
             d="m 0,0 -17.068,-43.814 -17.07,-43.811 h 13.04 l -3.557,-7.78 -24.655,-53.902 h 20.831 l -7.937,-12.524 -36.412,-57.501 h 33.706 l -9.43,-14.894 -32.527,-51.358 h 93.413 v 253.929 z"
             style="fill:#192026;fill-opacity:1;fill-rule:evenodd;stroke:none"
             id="path3253" />
        </g>
        <g
           id="g3255"
           transform="translate(518.0488,330.1357)">
          <path
             d="m 0,0 -22.755,-58.414 -22.759,-58.409 h 17.387 l -4.744,-10.374 -32.871,-71.866 h 27.771 l -10.58,-16.698 -48.547,-76.662 h 44.939 l -12.573,-19.858 -10.651,-16.817 H 75.389 l -10.649,16.817 -12.577,19.858 h 44.941 l -48.549,76.662 -10.573,16.698 h 27.764 l -32.871,71.866 -4.743,10.374 h 17.386 l -22.755,58.409 z"
             style="fill:#2b3c4b;fill-opacity:1;fill-rule:evenodd;stroke:none"
             id="path3257" />
        </g>
        <g
           id="g3259"
           transform="translate(412.6934,172.4365)">
          <path
             d="m 0,0 -16.608,-42.637 -16.613,-42.631 h 12.69 l -3.462,-7.572 -23.991,-52.454 h 20.269 l -7.722,-12.185 -8.814,-13.919 h 88.503 l -8.814,13.919 -7.718,12.185 h 20.265 l -23.991,52.454 -3.462,7.572 h 12.69 l -16.609,42.631 z"
             style="fill:#3e5c78;fill-opacity:1;fill-rule:evenodd;stroke:none"
             id="path3261" />
        </g>
      </g>
    </g>
  </g>
</svg>
